<svg version="1.1" viewBox="0.0 0.0 960.6377952755905 303.66141732283467" fill="none" stroke="none" stroke-linecap="square" stroke-miterlimit="10" xmlns:xlink="http://www.w3.org/1999/xlink" xmlns="http://www.w3.org/2000/svg"><clipPath id="p.0"><path d="m0 0l960.6378 0l0 303.6614l-960.6378 0l0 -303.6614z" clip-rule="nonzero"/></clipPath><g clip-path="url(#p.0)"><path fill="#000000" fill-opacity="0.0" d="m0 0l960.6378 0l0 303.6614l-960.6378 0z" fill-rule="evenodd"/><path fill="#000000" fill-opacity="0.0" d="m33.8937 27.405512l892.8504 0l0 248.8504l-892.8504 0z" fill-rule="evenodd"/><path fill="#ffffff" d="m374.03766 61.019882l11.546875 0l0 66.265625l-11.546875 0l0 -29.71875l-27.4375 0l0 29.71875l-11.5625 0l0 -66.265625l11.5625 0l0 25.0l27.4375 0l0 -25.0zm43.023468 67.5q-6.53125 0 -11.90625 -3.359375q-5.359375 -3.359375 -8.5625 -9.015625q-3.1875 -5.65625 -3.1875 -12.53125q0 -5.203125 1.84375 -9.71875q1.84375 -4.515625 5.078125 -7.9375q3.25 -3.4375 7.546875 -5.375q4.3125 -1.953125 9.1875 -1.953125q6.53125 0 11.90625 3.359375q5.375 3.359375 8.5625 9.046875q3.203125 5.671875 3.203125 12.578125q0 5.171875 -1.859375 9.671875q-1.84375 4.484375 -5.078125 7.921875q-3.234375 3.421875 -7.53125 5.375q-4.28125 1.9375 -9.203125 1.9375zm0 -11.546875q3.453125 0 6.203125 -1.84375q2.75 -1.859375 4.328125 -4.875q1.59375 -3.03125 1.59375 -6.640625q0 -3.6875 -1.640625 -6.734375q-1.625 -3.0625 -4.40625 -4.875q-2.765625 -1.828125 -6.078125 -1.828125q-3.40625 0 -6.15625 1.859375q-2.734375 1.84375 -4.34375 4.921875q-1.609375 3.0625 -1.609375 6.65625q0 3.75 1.65625 6.78125q1.65625 3.03125 4.421875 4.8125q2.765625 1.765625 6.03125 1.765625zm30.380829 10.3125l0 -71.0l11.5625 0l0 71.0l-11.5625 0zm22.90686 -47.328125l11.5625 0l0 47.328125l-11.5625 0l0 -47.328125zm5.875 -6.109375q-2.546875 0 -4.296875 -1.671875q-1.75 -1.6875 -1.75 -4.234375q0 -2.515625 1.75 -4.21875q1.75 -1.703125 4.25 -1.703125q2.515625 0 4.234375 1.703125q1.734375 1.703125 1.734375 4.21875q0 2.546875 -1.703125 4.234375q-1.703125 1.671875 -4.21875 1.671875zm30.290619 54.296875q-3.6875 -0.25 -7.125 -1.5q-3.421875 -1.25 -6.078125 -3.421875q-2.65625 -2.1875 -4.078125 -5.21875l9.75 -4.15625q0.578125 0.9375 1.84375 2.015625q1.28125 1.0625 3.0625 1.78125q1.78125 0.703125 3.90625 0.703125q1.796875 0 3.421875 -0.5q1.6405945 -0.5 2.6562195 -1.53125q1.015625 -1.046875 1.015625 -2.703125q0 -1.75 -1.203125 -2.71875q-1.203125 -0.984375 -3.0312195 -1.46875q-1.828125 -0.5 -3.53125 -0.9375q-4.484375 -0.890625 -8.34375 -2.78125q-3.859375 -1.890625 -6.203125 -4.890625q-2.34375 -3.015625 -2.34375 -7.28125q0 -4.6875 2.484375 -8.09375q2.484375 -3.40625 6.484375 -5.25q4.0 -1.84375 8.640625 -1.84375q5.6249695 0 10.3280945 2.34375q4.71875 2.34375 7.46875 6.59375l-9.140625 5.40625q-0.65625 -1.140625 -1.84375 -2.109375q-1.1875 -0.96875 -2.7030945 -1.609375q-1.515625 -0.640625 -3.171875 -0.734375q-2.125 -0.09375 -3.875 0.390625q-1.75 0.46875 -2.8125 1.609375q-1.0625 1.125 -1.0625 3.015625q0 1.796875 1.40625 2.671875q1.421875 0.875 3.4375 1.359375q2.015625 0.46875 3.859375 1.03125q4.1718445 1.375 7.8280945 3.375q3.671875 1.984375 5.890625 4.875q2.234375 2.875 2.140625 6.90625q0 4.578125 -2.75 8.015625q-2.75 3.4375 -7.078125 5.234375q-4.3280945 1.796875 -9.2499695 1.421875zm52.534454 -36.640625l-9.1875 0l0 35.78125l-11.546875 0l0 -35.78125l-7.0 0l0 -11.546875l7.0 0l0 -14.859375l11.546875 0l0 14.859375l9.1875 0l0 11.546875zm7.802002 -11.546875l11.5625 0l0 47.328125l-11.5625 0l0 -47.328125zm5.875 -6.109375q-2.546875 0 -4.296875 -1.671875q-1.75 -1.6875 -1.75 -4.234375q0 -2.515625 1.75 -4.21875q1.75 -1.703125 4.25 -1.703125q2.515625 0 4.234375 1.703125q1.734375 1.703125 1.734375 4.21875q0 2.546875 -1.703125 4.234375q-1.703125 1.671875 -4.21875 1.671875zm45.286926 39.1875l10.421875 5.640625q-3.265625 4.4375 -8.1875 7.140625q-4.921875 2.703125 -10.75 2.703125q-6.53125 0 -11.90625 -3.359375q-5.359375 -3.359375 -8.5625 -9.015625q-3.1875 -5.65625 -3.1875 -12.53125q0 -5.203125 1.84375 -9.71875q1.84375 -4.515625 5.078125 -7.9375q3.25 -3.4375 7.546875 -5.375q4.3125 -1.953125 9.1875 -1.953125q5.828125 0 10.75 2.703125q4.921875 2.6875 8.1875 7.234375l-10.421875 5.59375q-1.65625 -1.890625 -3.90625 -2.9375q-2.234375 -1.046875 -4.609375 -1.046875q-3.40625 0 -6.15625 1.875q-2.734375 1.875 -4.34375 4.921875q-1.609375 3.046875 -1.609375 6.640625q0 3.5625 1.609375 6.609375q1.609375 3.046875 4.34375 4.90625q2.75 1.84375 6.15625 1.84375q2.46875 0 4.6875 -1.0625q2.21875 -1.078125 3.828125 -2.875z" fill-rule="nonzero"/><path fill="#ffffff" d="m252.21564 193.55737l11.546875 0l0 47.328125l-11.546875 0l-0.515625 -5.875q-1.9375 3.171875 -5.140625 5.140625q-3.1875 1.96875 -7.546875 1.96875q-5.25 0 -9.84375 -1.984375q-4.59375 -2.0 -8.078125 -5.5q-3.46875 -3.5 -5.4375 -8.09375q-1.953125 -4.59375 -1.953125 -9.84375q0 -5.0625 1.859375 -9.5q1.875 -4.453125 5.234375 -7.8125q3.359375 -3.359375 7.765625 -5.25q4.40625 -1.90625 9.46875 -1.90625q4.6875 0 8.390625 2.09375q3.71875 2.078125 6.328125 5.296875l-0.53125 -6.0625zm-13.484375 37.4375q3.6875 0 6.53125 -1.84375q2.84375 -1.84375 4.453125 -4.984375q1.609375 -3.15625 1.609375 -6.953125q0 -3.828125 -1.609375 -6.96875q-1.609375 -3.15625 -4.484375 -5.0q-2.859375 -1.84375 -6.5 -1.84375q-3.640625 0 -6.65625 1.875q-3.0 1.859375 -4.78125 4.984375q-1.765625 3.125 -1.765625 6.953125q0 3.84375 1.796875 6.96875q1.796875 3.125 4.796875 4.96875q3.015625 1.84375 6.609375 1.84375zm34.558594 9.890625l-0.0625 -47.328125l11.5625 0l0.046875 4.21875q2.40625 -2.5625 5.765625 -4.046875q3.359375 -1.5 7.25 -1.5q2.59375 0 5.203125 0.765625l-4.546875 11.640625q-1.796875 -0.71875 -3.59375 -0.71875q-2.796875 0 -5.09375 1.359375q-2.296875 1.34375 -3.640625 3.640625q-1.34375 2.296875 -1.34375 5.09375l0 26.875l-11.546875 0zm62.17398 -14.25l10.421875 5.640625q-3.265625 4.4375 -8.1875 7.140625q-4.921875 2.703125 -10.75 2.703125q-6.53125 0 -11.90625 -3.359375q-5.359375 -3.359375 -8.5625 -9.015625q-3.1875 -5.65625 -3.1875 -12.53125q0 -5.203125 1.84375 -9.71875q1.84375 -4.515625 5.078125 -7.9375q3.25 -3.4375 7.546875 -5.375q4.3125 -1.953125 9.1875 -1.953125q5.828125 0 10.75 2.703125q4.921875 2.6875 8.1875 7.234375l-10.421875 5.59375q-1.65625 -1.890625 -3.90625 -2.9375q-2.234375 -1.046875 -4.609375 -1.046875q-3.40625 0 -6.15625 1.875q-2.734375 1.875 -4.34375 4.921875q-1.609375 3.046875 -1.609375 6.640625q0 3.5625 1.609375 6.609375q1.609375 3.046875 4.34375 4.90625q2.75 1.84375 6.15625 1.84375q2.46875 0 4.6875 -1.0625q2.21875 -1.078125 3.828125 -2.875zm60.82309 -15.65625l0 29.90625l-11.546875 0l0 -26.875q0 -2.796875 -1.375 -5.09375q-1.375 -2.296875 -3.671875 -3.640625q-2.296875 -1.359375 -5.078125 -1.359375q-2.796875 0 -5.09375 1.359375q-2.296875 1.34375 -3.640625 3.640625q-1.34375 2.296875 -1.34375 5.09375l0 26.875l-11.546875 0l-0.0625 -71.0l11.5625 0l0.046875 27.890625q2.40625 -2.5625 5.765625 -4.046875q3.359375 -1.5 7.25 -1.5q5.15625 0 9.40625 2.53125q4.265625 2.53125 6.796875 6.765625q2.53125 4.234375 2.53125 9.453125zm9.458954 -17.421875l11.5625 0l0 47.328125l-11.5625 0l0 -47.328125zm5.875 -6.109375q-2.546875 0 -4.296875 -1.671875q-1.75 -1.6875 -1.75 -4.234375q0 -2.515625 1.75 -4.21875q1.75 -1.703125 4.25 -1.703125q2.515625 0 4.234375 1.703125q1.734375 1.703125 1.734375 4.21875q0 2.546875 -1.703125 4.234375q-1.703125 1.671875 -4.21875 1.671875zm42.40686 17.65625l-9.1875 0l0 35.78125l-11.546875 0l0 -35.78125l-7.0 0l0 -11.546875l7.0 0l0 -14.859375l11.546875 0l0 14.859375l9.1875 0l0 11.546875zm28.298767 37.015625q-6.53125 0 -11.90625 -3.359375q-5.359375 -3.359375 -8.5625 -9.03125q-3.1875 -5.6875 -3.1875 -12.5625q0 -5.15625 1.84375 -9.671875q1.84375 -4.515625 5.078125 -7.9375q3.25 -3.4375 7.546875 -5.375q4.3125 -1.953125 9.1875 -1.953125q5.546875 0 10.15625 2.34375q4.609375 2.34375 7.828125 6.421875q3.21875 4.0625 4.6875 9.265625q1.46875 5.203125 0.671875 10.890625l-34.609375 0q0.671875 2.65625 2.1875 4.765625q1.515625 2.09375 3.828125 3.359375q2.3125 1.25 5.25 1.296875q3.03125 0.046875 5.515625 -1.4375q2.484375 -1.5 4.140625 -4.0625l11.78125 2.75q-2.875 6.296875 -8.609375 10.296875q-5.71875 4.0 -12.828125 4.0zm-11.640625 -29.625l23.28125 0q-0.515625 -2.84375 -2.203125 -5.140625q-1.671875 -2.296875 -4.140625 -3.671875q-2.453125 -1.375 -5.296875 -1.375q-2.828125 0 -5.25 1.359375q-2.40625 1.34375 -4.09375 3.640625q-1.6875 2.296875 -2.296875 5.1875zm72.16989 14.140625l10.421814 5.640625q-3.265625 4.4375 -8.187439 7.140625q-4.921875 2.703125 -10.75 2.703125q-6.53125 0 -11.90625 -3.359375q-5.359375 -3.359375 -8.5625 -9.015625q-3.1875 -5.65625 -3.1875 -12.53125q0 -5.203125 1.84375 -9.71875q1.84375 -4.515625 5.078125 -7.9375q3.25 -3.4375 7.546875 -5.375q4.3125 -1.953125 9.1875 -1.953125q5.828125 0 10.75 2.703125q4.921814 2.6875 8.187439 7.234375l-10.421814 5.59375q-1.65625 -1.890625 -3.90625 -2.9375q-2.234375 -1.046875 -4.609375 -1.046875q-3.40625 0 -6.15625 1.875q-2.734375 1.875 -4.34375 4.921875q-1.609375 3.046875 -1.609375 6.640625q0 3.5625 1.609375 6.609375q1.609375 3.046875 4.34375 4.90625q2.75 1.84375 6.15625 1.84375q2.46875 0 4.6875 -1.0625q2.21875 -1.078125 3.828125 -2.875zm44.30597 -21.53125l-9.1875 0l0 35.78125l-11.546875 0l0 -35.78125l-7.0 0l0 -11.546875l7.0 0l0 -14.859375l11.546875 0l0 14.859375l9.1875 0l0 11.546875zm6.62146 18.265625l0 -29.8125l11.546875 0l0 26.78125q0 2.796875 1.375 5.09375q1.375 2.296875 3.671875 3.65625q2.296875 1.34375 5.046875 1.34375q2.828125 0 5.09375 -1.34375q2.28125 -1.359375 3.65625 -3.65625q1.375 -2.296875 1.375 -5.09375l0 -26.78125l11.546875 0l0.046875 47.328125l-11.546875 0l-0.046875 -4.3125q-2.46875 2.5625 -5.828125 4.0625q-3.359375 1.484375 -7.1875 1.484375q-5.15625 0 -9.421875 -2.53125q-4.265625 -2.53125 -6.796875 -6.765625q-2.53125 -4.25 -2.53125 -9.453125zm52.878296 17.515625l-0.0625 -47.328125l11.5625 0l0.046875 4.21875q2.40625 -2.5625 5.765625 -4.046875q3.359375 -1.5 7.25 -1.5q2.59375 0 5.203125 0.765625l-4.546875 11.640625q-1.796875 -0.71875 -3.59375 -0.71875q-2.796875 0 -5.09375 1.359375q-2.296875 1.34375 -3.640625 3.640625q-1.34375 2.296875 -1.34375 5.09375l0 26.875l-11.546875 0zm53.658325 1.234375q-6.53125 0 -11.90625 -3.359375q-5.359375 -3.359375 -8.5625 -9.03125q-3.1875 -5.6875 -3.1875 -12.5625q0 -5.15625 1.84375 -9.671875q1.84375 -4.515625 5.078125 -7.9375q3.25 -3.4375 7.546875 -5.375q4.3125 -1.953125 9.1875 -1.953125q5.546875 0 10.15625 2.34375q4.609375 2.34375 7.828125 6.421875q3.21875 4.0625 4.6875 9.265625q1.46875 5.203125 0.671875 10.890625l-34.609375 0q0.671875 2.65625 2.1875 4.765625q1.515625 2.09375 3.828125 3.359375q2.3125 1.25 5.25 1.296875q3.03125 0.046875 5.515625 -1.4375q2.484375 -1.5 4.140625 -4.0625l11.78125 2.75q-2.875 6.296875 -8.609375 10.296875q-5.71875 4.0 -12.828125 4.0zm-11.640625 -29.625l23.28125 0q-0.515625 -2.84375 -2.203125 -5.140625q-1.671875 -2.296875 -4.140625 -3.671875q-2.453125 -1.375 -5.296875 -1.375q-2.828125 0 -5.25 1.359375q-2.40625 1.34375 -4.09375 3.640625q-1.6875 2.296875 -2.296875 5.1875zm40.935547 33.6875l2.9375 -16.0l11.546875 0l-6.765625 16.0l-7.71875 0z" fill-rule="nonzero"/><path fill="#ffffff" d="m84.27645 318.70425l-9.1875 0l0 35.78125l-11.546875 0l0 -35.78125l-7.0 0l0 -11.546875l7.0 0l0 -14.859375l11.546875 0l0 14.859375l9.1875 0l0 11.546875zm51.87139 5.875l0 29.90625l-11.546883 0l0 -26.875q0 -2.796875 -1.375 -5.09375q-1.375 -2.296875 -3.671875 -3.640625q-2.296875 -1.359375 -5.078125 -1.359375q-2.796875 0 -5.09375 1.359375q-2.296875 1.34375 -3.640625 3.640625q-1.34375 2.296875 -1.34375 5.09375l0 26.875l-11.546875 0l-0.0625 -71.0l11.5625 0l0.046875 27.890625q2.40625 -2.5625 5.765625 -4.046875q3.359375 -1.5 7.25 -1.5q5.15625 0 9.40625 2.53125q4.2656326 2.53125 6.7968826 6.765625q2.53125 4.234375 2.53125 9.453125zm29.340393 31.140625q-6.53125 0 -11.90625 -3.359375q-5.359375 -3.359375 -8.5625 -9.015625q-3.1875 -5.65625 -3.1875 -12.53125q0 -5.203125 1.84375 -9.71875q1.84375 -4.515625 5.078125 -7.9375q3.25 -3.4375 7.546875 -5.375q4.3125 -1.953125 9.1875 -1.953125q6.53125 0 11.90625 3.359375q5.375 3.359375 8.5625 9.046875q3.203125 5.671875 3.203125 12.578125q0 5.171875 -1.859375 9.671875q-1.84375 4.484375 -5.078125 7.921875q-3.234375 3.421875 -7.53125 5.375q-4.28125 1.9375 -9.203125 1.9375zm0 -11.546875q3.453125 0 6.203125 -1.84375q2.75 -1.859375 4.328125 -4.875q1.59375 -3.03125 1.59375 -6.640625q0 -3.6875 -1.640625 -6.734375q-1.625 -3.0625 -4.40625 -4.875q-2.765625 -1.828125 -6.078125 -1.828125q-3.40625 0 -6.15625 1.859375q-2.734375 1.84375 -4.34375 4.921875q-1.609375 3.0625 -1.609375 6.65625q0 3.75 1.65625 6.78125q1.65625 3.03125 4.421875 4.8125q2.765625 1.765625 6.03125 1.765625zm28.111542 -7.203125l0 -29.8125l11.546875 0l0 26.78125q0 2.796875 1.375 5.09375q1.375 2.296875 3.671875 3.65625q2.296875 1.34375 5.046875 1.34375q2.828125 0 5.09375 -1.34375q2.28125 -1.359375 3.65625 -3.65625q1.375 -2.296875 1.375 -5.09375l0 -26.78125l11.546875 0l0.046875 47.328125l-11.546875 0l-0.046875 -4.3125q-2.46875 2.5625 -5.828125 4.0625q-3.359375 1.484375 -7.1875 1.484375q-5.15625 0 -9.421875 -2.53125q-4.265625 -2.53125 -6.796875 -6.765625q-2.53125 -4.25 -2.53125 -9.453125zm87.23079 -29.8125l11.5469055 0l0 48.234375q0 5.109375 -2.078125 9.296875q-2.0781555 4.1875 -5.6875305 7.1875q-3.59375 3.015625 -8.234375 4.640625q-4.640625 1.640625 -9.75 1.640625q-4.96875 0 -9.5625 -2.046875q-4.5781097 -2.03125 -8.10936 -5.5625q-3.53125 -3.515625 -5.375 -8.015625l10.5625 -4.78125q0.9375 2.609375 2.8593597 4.5625q1.921875 1.96875 4.421875 3.078125q2.515625 1.109375 5.203125 1.109375q2.75 0 5.28125 -0.765625q2.53125 -0.75 4.5625 -2.1875q2.046875 -1.4375 3.203125 -3.5q1.15625 -2.0625 1.15625 -4.65625l0 -6.6875q-2.21875 3.125 -5.578125 5.078125q-3.359375 1.9375 -7.765625 1.9375q-5.109375 0 -9.5625 -1.9375q-4.4531097 -1.953125 -7.8437347 -5.375q-3.375 -3.4375 -5.296875 -7.921875q-1.90625 -4.5 -1.90625 -9.671875q0 -5.15625 1.90625 -9.640625q1.921875 -4.5 5.296875 -7.921875q3.390625 -3.4375 7.8437347 -5.375q4.453125 -1.953125 9.5625 -1.953125q4.40625 0 7.765625 1.921875q3.359375 1.921875 5.578125 5.046875l0 -5.734375zm-13.203125 37.4375q3.640625 0 6.453125 -1.859375q2.828125 -1.875 4.4375 -5.015625q1.609375 -3.15625 1.609375 -6.90625q0 -3.78125 -1.640625 -6.90625q-1.625 -3.125 -4.453125 -5.015625q-2.8125 -1.890625 -6.40625 -1.890625q-3.546875 0 -6.484375 1.875q-2.9375 1.859375 -4.6875 4.984375q-1.7499847 3.125 -1.7499847 6.953125q0 3.84375 1.7499847 6.96875q1.75 3.125 4.6875 4.96875q2.9375 1.84375 6.484375 1.84375zm79.461945 -20.015625l0 29.90625l-11.546875 0l0 -26.875q0 -2.796875 -1.375 -5.09375q-1.375 -2.296875 -3.671875 -3.640625q-2.296875 -1.359375 -5.078125 -1.359375q-2.796875 0 -5.09375 1.359375q-2.296875 1.34375 -3.640625 3.640625q-1.34375 2.296875 -1.34375 5.09375l0 26.875l-11.546875 0l-0.0625 -71.0l11.5625 0l0.046875 27.890625q2.40625 -2.5625 5.765625 -4.046875q3.359375 -1.5 7.25 -1.5q5.15625 0 9.40625 2.53125q4.265625 2.53125 6.796875 6.765625q2.53125 4.234375 2.53125 9.453125zm34.833923 -5.875l-9.1875 0l0 35.78125l-11.546875 0l0 -35.78125l-7.0 0l0 -11.546875l7.0 0l0 -14.859375l11.546875 0l0 14.859375l9.1875 0l0 11.546875zm21.918274 -21.484375l0 9.9375l12.921875 0l0 11.546875l-12.921875 0l0 35.78125l-11.546875 0l0 -35.78125l-5.171875 0l0 -11.546875l5.171875 0l0 -9.9375q0 -4.078125 2.0 -7.453125q2.015625 -3.390625 5.421875 -5.390625q3.40625 -2.015625 7.53125 -2.015625q2.984375 0 5.90625 1.234375q2.9375 1.21875 5.21875 3.78125l-8.34375 8.140625q-0.421875 -0.8125 -1.203125 -1.203125q-0.78125 -0.40625 -1.578125 -0.40625q-1.375 0 -2.390625 0.96875q-1.015625 0.96875 -1.015625 2.34375zm19.631409 39.75l0 -29.8125l11.546875 0l0 26.78125q0 2.796875 1.375 5.09375q1.375 2.296875 3.671875 3.65625q2.296875 1.34375 5.046875 1.34375q2.828125 0 5.09375 -1.34375q2.28125 -1.359375 3.65625 -3.65625q1.375 -2.296875 1.375 -5.09375l0 -26.78125l11.546875 0l0.046875 47.328125l-11.546875 0l-0.046875 -4.3125q-2.46875 2.5625 -5.828125 4.0625q-3.359375 1.484375 -7.1875 1.484375q-5.15625 0 -9.421875 -2.53125q-4.265625 -2.53125 -6.796875 -6.765625q-2.53125 -4.25 -2.53125 -9.453125zm53.05249 17.515625l0 -71.0l11.5625 0l0 71.0l-11.5625 0zm22.90686 0l0 -71.0l11.5625 0l0 71.0l-11.5625 0zm52.10959 -47.328125l12.265625 0l-25.890625 71.0l-12.25 0l8.5625 -23.671875l-17.046875 -47.328125l12.640625 0l10.171875 31.515625l11.546875 -31.515625zm73.783325 33.078125l10.421875 5.640625q-3.265625 4.4375 -8.1875 7.140625q-4.921875 2.703125 -10.75 2.703125q-6.53125 0 -11.90625 -3.359375q-5.359375 -3.359375 -8.5625 -9.015625q-3.1875 -5.65625 -3.1875 -12.53125q0 -5.203125 1.84375 -9.71875q1.84375 -4.515625 5.078125 -7.9375q3.25 -3.4375 7.546875 -5.375q4.3125 -1.953125 9.1875 -1.953125q5.828125 0 10.75 2.703125q4.921875 2.6875 8.1875 7.234375l-10.421875 5.59375q-1.65625 -1.890625 -3.90625 -2.9375q-2.234375 -1.046875 -4.609375 -1.046875q-3.40625 0 -6.15625 1.875q-2.734375 1.875 -4.34375 4.921875q-1.609375 3.046875 -1.609375 6.640625q0 3.5625 1.609375 6.609375q1.609375 3.046875 4.34375 4.90625q2.75 1.84375 6.15625 1.84375q2.46875 0 4.6875 -1.0625q2.21875 -1.078125 3.828125 -2.875zm18.99353 14.25l-0.0625 -47.328125l11.5625 0l0.046875 4.21875q2.40625 -2.5625 5.765625 -4.046875q3.359375 -1.5 7.25 -1.5q2.59375 0 5.203125 0.765625l-4.546875 11.640625q-1.796875 -0.71875 -3.59375 -0.71875q-2.796875 0 -5.09375 1.359375q-2.296875 1.34375 -3.640625 3.640625q-1.34375 2.296875 -1.34375 5.09375l0 26.875l-11.546875 0zm68.5177 -47.328125l11.546875 0l0 47.328125l-11.546875 0l-0.515625 -5.875q-1.9375 3.171875 -5.140625 5.140625q-3.1875 1.96875 -7.546875 1.96875q-5.25 0 -9.84375 -1.984375q-4.59375 -2.0 -8.078125 -5.5q-3.46875 -3.5 -5.4375 -8.09375q-1.953125 -4.59375 -1.953125 -9.84375q0 -5.0625 1.859375 -9.5q1.875 -4.453125 5.234375 -7.8125q3.359375 -3.359375 7.765625 -5.25q4.40625 -1.90625 9.46875 -1.90625q4.6875 0 8.390625 2.09375q3.71875 2.078125 6.328125 5.296875l-0.53125 -6.0625zm-13.484375 37.4375q3.6875 0 6.53125 -1.84375q2.84375 -1.84375 4.453125 -4.984375q1.609375 -3.15625 1.609375 -6.953125q0 -3.828125 -1.609375 -6.96875q-1.609375 -3.15625 -4.484375 -5.0q-2.859375 -1.84375 -6.5 -1.84375q-3.640625 0 -6.65625 1.875q-3.0 1.859375 -4.78125 4.984375q-1.765625 3.125 -1.765625 6.953125q0 3.84375 1.796875 6.96875q1.796875 3.125 4.796875 4.96875q3.015625 1.84375 6.609375 1.84375zm47.902344 -47.375l0 9.9375l12.921875 0l0 11.546875l-12.921875 0l0 35.78125l-11.546875 0l0 -35.78125l-5.171875 0l0 -11.546875l5.171875 0l0 -9.9375q0 -4.078125 2.0 -7.453125q2.015625 -3.390625 5.421875 -5.390625q3.40625 -2.015625 7.53125 -2.015625q2.984375 0 5.90625 1.234375q2.9375 1.21875 5.21875 3.78125l-8.34375 8.140625q-0.421875 -0.8125 -1.203125 -1.203125q-0.78125 -0.40625 -1.578125 -0.40625q-1.375 0 -2.390625 0.96875q-1.015625 0.96875 -1.015625 2.34375zm47.654358 21.484375l-9.1875 0l0 35.78125l-11.546875 0l0 -35.78125l-7.0 0l0 -11.546875l7.0 0l0 -14.859375l11.546875 0l0 14.859375l9.1875 0l0 11.546875zm28.298767 37.015625q-6.53125 0 -11.90625 -3.359375q-5.359375 -3.359375 -8.5625 -9.03125q-3.1875 -5.6875 -3.1875 -12.5625q0 -5.15625 1.84375 -9.671875q1.84375 -4.515625 5.078125 -7.9375q3.25 -3.4375 7.546875 -5.375q4.3125 -1.953125 9.1875 -1.953125q5.546875 0 10.15625 2.34375q4.609375 2.34375 7.828125 6.421875q3.21875 4.0625 4.6875 9.265625q1.46875 5.203125 0.671875 10.890625l-34.609375 0q0.671875 2.65625 2.1875 4.765625q1.515625 2.09375 3.828125 3.359375q2.3125 1.25 5.25 1.296875q3.03125 0.046875 5.515625 -1.4375q2.484375 -1.5 4.140625 -4.0625l11.78125 2.75q-2.875 6.296875 -8.609375 10.296875q-5.71875 4.0 -12.828125 4.0zm-11.640625 -29.625l23.28125 0q-0.515625 -2.84375 -2.203125 -5.140625q-1.671875 -2.296875 -4.140625 -3.671875q-2.453125 -1.375 -5.296875 -1.375q-2.828125 0 -5.25 1.359375q-2.40625 1.34375 -4.09375 3.640625q-1.6875 2.296875 -2.296875 5.1875zm78.60736 -42.609375l11.546875 0l0 71.0l-11.546875 0l0 -5.921875q-2.265625 3.171875 -5.71875 5.171875q-3.453125 1.984375 -8.0 1.984375q-5.15625 0 -9.65625 -1.9375q-4.5 -1.953125 -7.9375 -5.375q-3.421875 -3.4375 -5.359375 -7.921875q-1.9375 -4.5 -1.9375 -9.671875q0 -5.15625 1.9375 -9.640625q1.9375 -4.5 5.359375 -7.921875q3.4375 -3.4375 7.9375 -5.375q4.5 -1.953125 9.65625 -1.953125q4.546875 0 8.0 1.96875q3.453125 1.96875 5.71875 5.1875l0 -29.59375zm-13.578125 61.109375q3.6875 0 6.53125 -1.84375q2.84375 -1.84375 4.453125 -4.984375q1.609375 -3.15625 1.609375 -6.953125q0 -3.828125 -1.609375 -6.96875q-1.609375 -3.15625 -4.484375 -5.0q-2.859375 -1.84375 -6.5 -1.84375q-3.640625 0 -6.65625 1.875q-3.0 1.859375 -4.78125 4.984375q-1.765625 3.125 -1.765625 6.953125q0 3.84375 1.796875 6.96875q1.796875 3.125 4.796875 4.96875q3.015625 1.84375 6.609375 1.84375z" fill-rule="nonzero"/></g></svg>