<svg version="1.1" viewBox="0.0 0.0 960.6377952755905 303.66141732283467" fill="none" stroke="none" stroke-linecap="square" stroke-miterlimit="10" xmlns:xlink="http://www.w3.org/1999/xlink" xmlns="http://www.w3.org/2000/svg"><clipPath id="p.0"><path d="m0 0l960.6378 0l0 303.6614l-960.6378 0l0 -303.6614z" clip-rule="nonzero"/></clipPath><g clip-path="url(#p.0)"><path fill="#000000" fill-opacity="0.0" d="m0 0l960.6378 0l0 303.6614l-960.6378 0z" fill-rule="evenodd"/><path fill="#000000" fill-opacity="0.0" d="m33.8937 27.405512l892.8504 0l0 219.77953l-892.8504 0z" fill-rule="evenodd"/><path fill="#ffffff" d="m179.15723 68.953l-12.3125 0l0 46.8125l-10.53125 0l0 -22.203125l-18.234375 0q-1.5 4.09375 -4.171875 4.65625l13.46875 15.90625l-8.125 6.859375l-25.937508 -30.625l8.140625 -6.859375l5.53125 6.5625q-0.796875 0.65625 -0.4375 -0.375q3.8906326 0 3.8906326 -11.03125l0 -9.703125l-18.000008 0l0 -9.90625l66.71876 0l0 9.90625zm-36.453125 43.34375l0 0zm0 -46.859375l0 0zm13.609375 18.234375l0 -14.71875l-15.34375 0l0 9.703125q0 4.40625 -0.09375 5.015625l15.4375 0zm3.546875 -18.234375l0 0zm0 46.859375l0 0zm79.67468 -43.34375l-12.3125 0l0 46.8125l-10.53125 0l0 -22.203125l-16.796875 0l0 0.015625q0 3.734375 -0.859375 6.5625q-0.859375 2.8125 -2.578125 4.765625q-1.703125 1.953125 -4.140625 2.875q-2.421875 0.921875 -5.359375 0.921875q-2.703125 0 -4.84375 -1.0625q-2.140625 -1.0625 -3.59375 -2.828125q-1.4375 -1.78125 -2.203125 -4.078125q-0.765625 -2.3125 -0.765625 -4.890625q0 -2.125 0.796875 -4.296875q0.8125 -2.171875 2.5 -3.9375q1.703125 -1.78125 4.265625 -2.859375q2.578125 -1.078125 6.03125 -1.078125l0.21875 0l0 -14.71875l-16.46875 0l0 -9.90625l66.640625 0l0 9.90625zm-22.84375 14.71875l0 -14.71875l-16.796875 0l0 14.71875l16.796875 0zm-27.328125 9.890625q-1.859375 0 -2.890625 0.671875q-1.015625 0.65625 -1.015625 1.65625q0 1.59375 0.4375 2.375q0.453125 0.78125 1.34375 0.78125q0.640625 0 1.0 -0.265625q0.359375 -0.28125 0.625 -0.890625q0.265625 -0.609375 0.375 -1.578125q0.125 -0.984375 0.125 -2.0l0 -0.75zm107.79968 -24.609375l-12.34375 0l0 46.8125l-10.546875 0l0 -46.8125l-10.359375 0l0 19.5q0 7.84375 -3.375 12.046875q-3.375 4.203125 -10.65625 4.203125q-2.71875 0 -4.96875 -0.9375q-2.25 -0.953125 -3.875 -2.6875q-1.609375 -1.75 -2.46875 -4.125q-0.859375 -2.390625 -0.859375 -5.265625q0 -2.515625 1.0 -4.703125q1.0 -2.1875 2.734375 -3.78125q1.75 -1.59375 4.03125 -2.5q2.296875 -0.90625 4.9375 -0.90625q1.296875 0 2.578125 0.203125q1.28125 0.1875 1.171875 0.984375l-0.796875 -12.03125l-20.09375 0l0 -9.90625l63.890625 0l0 9.90625zm-43.796875 20.390625q0.125 0.046875 -0.875 -0.15625q-0.984375 -0.21875 -2.078125 -0.21875q-0.640625 0 -1.234375 0.25q-0.578125 0.234375 -1.015625 0.625q-0.421875 0.390625 -0.65625 0.875q-0.21875 0.46875 -0.21875 0.96875q0 0.625 0.203125 1.140625q0.21875 0.515625 0.578125 0.875q0.375 0.359375 0.84375 0.578125q0.484375 0.203125 0.96875 0.203125q1.125 0 1.703125 -0.203125q0.578125 -0.21875 0.9375 -0.765625q0.375 -0.546875 0.609375 -1.84375q0.234375 -1.3125 0.234375 -2.328125zm32.046875 7.796875l-26.359375 21.609375l-5.484375 -6.890625l26.34375 -21.59375l5.5 6.875z" fill-rule="nonzero"/><path fill="#ffffff" d="m366.57126 68.953l-12.3125 0l0 46.8125l-10.546875 0l0.671875 -11.65625q0.265625 0.625 -1.578125 1.546875q-1.828125 0.921875 -3.703125 1.46875q-1.875 0.53125 -3.765625 0.75q-1.875 0.21875 -3.75 0.21875q-3.625 0 -6.8125 -1.390625q-3.1875 -1.390625 -5.515625 -3.78125q-2.3125 -2.390625 -3.65625 -5.59375q-1.34375 -3.203125 -1.34375 -6.84375q0 -3.78125 1.484375 -6.921875q1.5 -3.140625 4.09375 -5.390625q2.609375 -2.25 6.109375 -3.453125q3.515625 -1.21875 7.546875 -1.21875q2.203125 0 4.125 0.34375q1.921875 0.34375 3.53125 0.84375q1.609375 0.5 2.890625 1.0625q1.28125 0.546875 0.8125 1.578125l-1.140625 -8.375l-33.046875 0l0 -9.90625l55.90625 0l0 9.90625zm-22.859375 16.671875q-0.125 -0.0625 -1.46875 -0.625q-1.328125 -0.578125 -2.8125 -1.078125q-1.46875 -0.5 -2.953125 -0.796875q-1.46875 -0.296875 -2.75 -0.296875q-3.515625 0 -5.421875 0.921875q-1.890625 0.90625 -2.796875 2.109375q-0.890625 1.203125 -1.15625 2.59375q-0.25 1.375 -0.25 2.390625q0 1.59375 0.625 3.0q0.640625 1.390625 1.71875 2.4375q1.09375 1.046875 2.59375 1.65625q1.515625 0.59375 3.234375 0.59375q2.421875 0 4.4375 -0.671875q2.03125 -0.6875 3.578125 -1.578125q1.546875 -0.90625 2.515625 -1.78125q0.984375 -0.890625 0.90625 -0.8125l0 -8.0625zm11.545837 -20.1875l0 0zm32.859375 3.515625l-12.3125 0l0 46.8125l-10.53125 0l0 -46.8125l-5.046875 0l0 -9.90625l27.890625 0l0 9.90625zm-32.859375 43.34375l0 0zm13.03125 -46.859375l0 0zm65.4426 28.125l-26.3125 0q-1.5 4.09375 -4.171875 4.65625l13.46875 15.90625l-8.125 6.859375l-25.9375 -30.625l8.140625 -6.859375l5.53125 6.5625q-0.796875 0.65625 -0.4375 -0.375q3.890625 0 3.890625 -11.03125l0 -9.703125l-18.0 0l0 -9.90625l53.796875 0l0 9.90625l-25.265625 0l0 9.703125q0 4.40625 -0.09375 5.015625l23.515625 0l0 9.890625zm56.822144 -24.609375l-11.5 0l0 46.8125l-10.546875 0l0 -25.953125l-18.625 0q-3.125 0 -4.921875 1.765625q-1.796875 1.75 -1.796875 4.75q0 4.53125 3.75 8.859375q0.890625 1.078125 9.421875 8.671875l-8.21875 7.078125q-15.484375 -14.0 -15.484375 -24.125q0 -7.609375 4.25 -12.25q4.265625 -4.640625 11.921875 -4.640625l19.703125 0l0 -10.96875l-39.265625 0l0 -9.90625l61.3125 0l0 9.90625zm-32.9375 49.390625l0 0zm0 -52.90625l0 0zm14.4375 0l0 0zm0 46.859375l0 0zm-0.79556274 7.0234375l0 0zm16.109375 13.65625q0 8.21875 -5.984375 12.921875q-5.34375 4.21875 -13.53125 4.21875q-8.6875 0 -22.5625 -7.90625l4.90625 -9.375q12.0625 6.703125 17.859375 6.703125q3.84375 0 6.28125 -1.625q2.609375 -1.671875 2.609375 -4.890625q0 -2.046875 -1.375 -3.453125q-1.375 -1.40625 -3.40625 -1.40625q-4.15625 0 -8.453125 3.71875l-4.390625 -9.359375q5.703125 -5.03125 12.6875 -5.03125q6.375 0 10.875 4.59375q4.484375 4.578125 4.484375 10.890625zm67.84329 -73.92969l0 9.90625l-31.6875 0l-0.8125 13.453125q-0.453125 -0.6875 0.984375 -1.640625q1.4375 -0.96875 2.90625 -1.59375q1.484375 -0.640625 3.0 -0.90625q1.53125 -0.28125 3.21875 -0.28125q3.296875 0 6.03125 1.125q2.734375 1.125 4.625 3.21875q1.90625 2.078125 2.921875 4.953125q1.015625 2.859375 1.015625 6.296875q0 2.34375 -0.546875 4.640625q-0.53125 2.296875 -1.46875 4.421875q-0.921875 2.125 -2.15625 4.03125q-1.234375 1.90625 -3.921875 4.828125l-6.59375 -8.15625q1.671875 -1.765625 2.359375 -2.875q0.703125 -1.125 1.25 -2.359375q0.546875 -1.234375 0.890625 -2.46875q0.34375 -1.234375 0.34375 -2.171875q0 -1.65625 -0.5625 -2.734375q-0.546875 -1.09375 -1.359375 -1.765625q-0.796875 -0.671875 -1.703125 -0.953125q-0.90625 -0.296875 -1.5625 -0.296875q-1.375 0 -2.46875 0.375q-1.078125 0.375 -2.15625 1.109375q-1.078125 0.71875 -2.234375 1.8125q-1.140625 1.09375 -2.0 1.953125l0 22.796875l-10.53125 0l1.109375 -17.6875q0.578125 0.9375 -0.875 1.8125q-1.4374695 0.875 -3.1562195 1.625q-1.703125 0.75 -3.65625 1.265625q-1.9375 0.515625 -3.9375 0.515625q-4.328125 0 -7.359375 -1.359375q-3.015625 -1.375 -4.921875 -3.546875q-1.890625 -2.171875 -2.71875 -4.765625q-0.8125 -2.59375 -0.8125 -5.046875q0 -3.203125 1.21875 -5.875q1.234375 -2.671875 3.421875 -4.59375q2.203125 -1.9375 5.203125 -2.984375q3.0 -1.0625 6.53125 -1.0625q2.359375 0 4.28125 0.40625q1.9375 0.390625 3.484375 0.90625q1.5468445 0.515625 2.6874695 1.0625q1.140625 0.53125 0.65625 1.578125l-1.15625 -9.0625l-28.78122 0l0 -9.90625l70.99997 0zm-41.9375 27.796875q-0.15625 0.234375 -1.1875 -0.375q-1.0155945 -0.625 -2.3437195 -1.15625q-1.328125 -0.546875 -2.984375 -0.921875q-1.65625 -0.390625 -3.71875 -0.390625q-5.953125 0 -5.953125 4.140625q0 2.625 1.421875 3.90625q1.4375 1.265625 3.96875 1.265625q1.265625 0 2.8125 -0.5625q1.546875 -0.5625 3.078125 -1.40625q1.546875 -0.859375 2.953125 -1.859375q1.4062195 -1.0 1.6718445 -1.203125l0.28125 -1.4375zm102.31213 -17.890625l-12.3125 0l0 46.8125l-10.53125 0l0 -21.578125l-14.828125 8.1875l-5.296875 -8.53125l5.890625 -3.453125q-1.53125 -3.359375 -6.8125 -3.359375q-6.4375 0 -6.4375 6.234375q0 6.421875 12.640625 20.1875l-9.453125 4.15625q-6.859375 -7.40625 -9.4375 -11.15625q-4.8125 -7.015625 -4.8125 -12.90625q0 -8.0 5.203125 -12.6875q4.796875 -4.40625 12.296875 -4.40625q5.15625 0 9.65625 2.9375q4.75 3.109375 5.703125 6.078125l5.6875 -3.109375l0 -13.40625l-43.875 0l0 -9.90625l66.71875 0l0 9.90625zm-36.453125 43.34375l0 0zm0 -46.859375l0 0zm17.15625 0l0 0zm0 46.859375l0 0zm7.9871826 -46.859375l0 0zm32.859375 3.515625l-12.3125 0l0 46.8125l-10.53125 0l0 -46.8125l-5.046875 0l0 -9.90625l27.890625 0l0 9.90625zm-32.859375 43.34375l0 0zm13.03125 -46.859375l0 0z" fill-rule="nonzero"/><path fill="#ffffff" d="m634.18713 120.3905l2.5625 -13.96875l10.078125 0l-5.90625 13.96875l-6.734375 0z" fill-rule="nonzero"/><path fill="#ffffff" d="m738.2649 68.953l-12.3125 0l0 46.8125l-10.53125 0l0 -22.203125l-18.234375 0q-1.5 4.09375 -4.171875 4.65625l13.46875 15.90625l-8.125 6.859375l-25.9375 -30.625l8.140625 -6.859375l5.53125 6.5625q-0.796875 0.65625 -0.4375 -0.375q3.890625 0 3.890625 -11.03125l0 -9.703125l-18.0 0l0 -9.90625l66.71875 0l0 9.90625zm-36.453125 43.34375l0 0zm0 -46.859375l0 0zm13.609375 18.234375l0 -14.71875l-15.34375 0l0 9.703125q0 4.40625 -0.09375 5.015625l15.4375 0zm3.546875 -18.234375l0 0zm0 46.859375l0 0zm7.8621826 -46.859375l0 0zm32.984375 3.515625l-12.3125 0l0 46.8125l-10.53125 0l0 -46.8125l-5.046875 0l0 -9.90625l1.8125 0l-15.140625 -15.8125l7.3125 -7.359375l21.046875 23.171875l12.859375 0l0 9.90625zm-32.984375 43.34375l0 0zm13.15625 -54.9375l0 0zm78.03638 11.59375l-12.3125 0l0 46.8125l-10.546875 0l0 -11.015625q-4.125 3.109375 -11.765625 3.109375q-7.6875 0 -12.9375 -4.0625q-5.25 -4.078125 -5.25 -10.578125q0 -5.609375 2.328125 -8.28125l-9.671875 0l0 -9.90625l30.125 0l0 9.90625l-7.765625 0q-4.875 3.96875 -4.875 7.515625q0 5.984375 8.21875 5.984375q2.625 0 6.375 -1.625q3.625 -1.609375 5.21875 -3.109375l0 -24.75l-41.6875 0l0 -9.90625l64.546875 0l0 9.90625zm-35.375 43.34375l0 0zm0 -46.859375l0 0zm16.0625 0l0 0zm0 46.859375l0 0z" fill-rule="nonzero"/><path fill="#ffffff" d="m816.70557 85.92175l26.453125 0l0 10.09375l-26.453125 0l0 -10.09375z" fill-rule="nonzero"/><path fill="#ffffff" d="m190.53345 168.153l-12.3125 0l0 46.8125l-10.53125 0l0 -22.203125l-18.234375 0q-1.5 4.09375 -4.171875 4.65625l13.46875 15.90625l-8.125 6.859375l-25.937508 -30.625l8.140633 -6.859375l5.53125 6.5625q-0.796875 0.65625 -0.4375 -0.375q3.890625 0 3.890625 -11.03125l0 -9.703125l-18.000008 0l0 -9.90625l66.71876 0l0 9.90625zm-36.453125 43.34375l0 0zm0 -46.859375l0 0zm13.609375 18.234375l0 -14.71875l-15.34375 0l0 9.703125q0 4.40625 -0.09375 5.015625l15.4375 0zm3.546875 -18.234375l0 0zm0 46.859375l0 0zm79.67468 -43.34375l-12.3125 0l0 46.8125l-10.53125 0l0 -22.203125l-16.796875 0l0 0.015625q0 3.734375 -0.859375 6.5625q-0.859375 2.8125 -2.578125 4.765625q-1.703125 1.953125 -4.140625 2.875q-2.421875 0.921875 -5.359375 0.921875q-2.703125 0 -4.84375 -1.0625q-2.140625 -1.0625 -3.59375 -2.828125q-1.4375 -1.78125 -2.203125 -4.078125q-0.765625 -2.3125 -0.765625 -4.890625q0 -2.125 0.796875 -4.296875q0.8125 -2.171875 2.5 -3.9375q1.703125 -1.78125 4.265625 -2.859375q2.578125 -1.078125 6.03125 -1.078125l0.21875 0l0 -14.71875l-16.46875 0l0 -9.90625l66.640625 0l0 9.90625zm-22.84375 14.71875l0 -14.71875l-16.796875 0l0 14.71875l16.796875 0zm-27.328125 9.890625q-1.859375 0 -2.890625 0.671875q-1.015625 0.65625 -1.015625 1.65625q0 1.59375 0.4375 2.375q0.453125 0.78125 1.34375 0.78125q0.640625 0 1.0 -0.265625q0.359375 -0.28125 0.625 -0.890625q0.265625 -0.609375 0.375 -1.578125q0.125 -0.984375 0.125 -2.0l0 -0.75zm118.94031 -24.609375l-12.34375 0l0 46.8125l-10.546875 0l0 -18.96875l-9.453125 -0.421875q0.703125 0.203125 0.703125 3.828125q0 7.796875 -6.609375 12.484375q-5.6875 4.125 -13.546875 4.125q-0.71875 0 -0.578125 -1.484375l9.359375 11.484375l-9.15625 5.625l-10.125 -16.859375q-2.296875 -0.484375 -5.5625 -2.6875q-3.265625 -2.203125 -5.640625 -5.84375l7.140625 -6.40625q5.0625 6.03125 13.265625 6.03125q4.28125 0 7.421875 -1.5625q3.578125 -1.75 3.578125 -4.90625q0 -1.65625 -1.40625 -2.8125q-1.40625 -1.15625 -3.34375 -1.15625q-1.53125 0 -5.265625 0.671875q-3.734375 0.65625 -6.109375 0.65625q-5.9375 0 -9.890625 -3.21875q-4.375 -3.578125 -4.375 -9.71875q0 -12.09375 13.171875 -12.09375l11.609375 0l0 -3.578125l-27.40625 0l0 -9.90625l75.109375 0l0 9.90625zm-40.640625 -3.515625l0 0zm17.75 21.46875l0 -17.953125l-14.28125 0l0 13.390625l-23.21875 0q-0.984375 0 -1.59375 0.6875q-0.609375 0.671875 -0.609375 1.75q0 1.359375 0.9375 2.109375q1.0 0.8125 2.625 0.8125q1.703125 0 5.1875 -0.65625q3.5 -0.671875 5.546875 -0.671875q3.0 0 5.59375 0.53125l19.8125 0zm-17.75 38.625l0 0zm21.3125 -60.09375l0 0zm0 46.859375l0 0zm83.99133 -53.25l0 9.90625l-31.6875 0l-0.8125 13.453125q-0.453125 -0.6875 0.984375 -1.640625q1.4375 -0.96875 2.90625 -1.59375q1.484375 -0.640625 3.0 -0.90625q1.53125 -0.28125 3.21875 -0.28125q3.296875 0 6.03125 1.125q2.734375 1.125 4.625 3.21875q1.90625 2.078125 2.921875 4.953125q1.015625 2.859375 1.015625 6.296875q0 2.34375 -0.546875 4.640625q-0.53125 2.296875 -1.46875 4.421875q-0.921875 2.125 -2.15625 4.03125q-1.234375 1.90625 -3.921875 4.828125l-6.59375 -8.15625q1.671875 -1.765625 2.359375 -2.875q0.703125 -1.125 1.25 -2.359375q0.546875 -1.234375 0.890625 -2.46875q0.34375 -1.234375 0.34375 -2.171875q0 -1.65625 -0.5625 -2.734375q-0.546875 -1.09375 -1.359375 -1.765625q-0.796875 -0.671875 -1.703125 -0.953125q-0.90625 -0.296875 -1.5625 -0.296875q-1.375 0 -2.46875 0.375q-1.078125 0.375 -2.15625 1.109375q-1.078125 0.71875 -2.234375 1.8125q-1.140625 1.09375 -2.0 1.953125l0 22.796875l-10.53125 0l1.109375 -17.6875q0.578125 0.9375 -0.875 1.8125q-1.4375 0.875 -3.15625 1.625q-1.703125 0.75 -3.65625 1.265625q-1.9375 0.515625 -3.9375 0.515625q-4.328125 0 -7.359375 -1.359375q-3.015625 -1.375 -4.921875 -3.546875q-1.890625 -2.171875 -2.71875 -4.765625q-0.8125 -2.59375 -0.8125 -5.046875q0 -3.203125 1.21875 -5.875q1.234375 -2.671875 3.421875 -4.59375q2.203125 -1.9375 5.203125 -2.984375q3.0 -1.0625 6.53125 -1.0625q2.359375 0 4.28125 0.40625q1.9375 0.390625 3.484375 0.90625q1.546875 0.515625 2.6875 1.0625q1.140625 0.53125 0.65625 1.578125l-1.15625 -9.0625l-28.78125 0l0 -9.90625l71.0 0zm-41.9375 27.796875q-0.15625 0.234375 -1.1875 -0.375q-1.015625 -0.625 -2.34375 -1.15625q-1.328125 -0.546875 -2.984375 -0.921875q-1.65625 -0.390625 -3.71875 -0.390625q-5.953125 0 -5.953125 4.140625q0 2.625 1.421875 3.90625q1.4375 1.265625 3.96875 1.265625q1.265625 0 2.8125 -0.5625q1.546875 -0.5625 3.078125 -1.40625q1.546875 -0.859375 2.953125 -1.859375q1.40625 -1.0 1.671875 -1.203125l0.28125 -1.4375zm80.67154 -17.890625l-16.546875 0l0 10.140625q0 7.140625 -1.171875 10.671875q-2.296875 6.828125 -5.234375 6.828125l14.96875 17.53125l-8.140625 6.84375l-28.09375 -32.796875l8.15625 -6.796875l5.5 6.4375q-0.46875 0.390625 0 -0.21875q3.484375 0 3.484375 -6.5625l0 -12.078125l-18.0 0l0 -9.90625l45.078125 0l0 9.90625zm-25.625 43.34375l0 0zm2.09375 -46.859375l0 0zm-2.09375 0l0 0z" fill-rule="nonzero"/><path fill="#ffffff" d="m497.89398 168.153l-11.5 0l0 46.8125l-10.546875 0l0 -25.953125l-18.625 0q-3.125 0 -4.921875 1.765625q-1.796875 1.75 -1.796875 4.75q0 4.53125 3.75 8.859375q0.890625 1.078125 9.421875 8.671875l-8.21875 7.078125q-15.484375 -14.0 -15.484375 -24.125q0 -7.609375 4.25 -12.25q4.265625 -4.640625 11.921875 -4.640625l19.703125 0l0 -10.96875l-39.265625 0l0 -9.90625l61.3125 0l0 9.90625zm-32.9375 49.390625l0 0zm0 -52.90625l0 0zm14.4375 0l0 0zm0 46.859375l0 0zm7.5013123 -48.09375l-9.0625 3.828125l-12.453125 -28.921875l9.796875 -4.03125l11.71875 29.125zm-7.421875 -1.671875l-6.328125 6.265625l-24.8125 -20.984375l7.75 -7.734375l23.390625 22.453125zm-0.875 2.90625l0 0zm75.31204 3.515625l-12.3125 0l0 46.8125l-10.53125 0l0 -12.953125q-4.171875 2.65625 -12.328125 2.65625q-13.5312195 0 -24.078094 -17.40625q1.75 -2.671875 4.390625 -6.40625q3.171875 1.203125 4.953125 1.203125q3.421875 0 5.375 -1.828125q1.953125 -1.84375 1.953125 -5.046875q0 -2.03125 -1.703125 -4.578125q-1.625 -2.453125 -3.046875 -2.453125l-15.03125 0l0 -9.90625l62.359344 0l0 9.90625zm-34.265625 43.34375l0 0zm0 -46.859375l0 0zm11.421875 25.21875l0 -21.703125l-10.265625 0q1.21875 1.25 1.21875 7.109375q0 6.5625 -4.65625 11.296875q-4.65625 4.71875 -8.2812195 4.65625q-0.21875 -0.4375 3.2187195 1.25q3.4375 1.671875 6.515625 1.671875q6.875 0 12.25 -4.28125zm3.546875 -25.21875l0 0zm0 46.859375l0 0zm7.987732 -46.859375l0 0zm32.859375 3.515625l-12.3125 0l0 46.8125l-10.53125 0l0 -46.8125l-5.046875 0l0 -9.90625l27.890625 0l0 9.90625zm-32.859375 43.34375l0 0zm13.03125 -46.859375l0 0zm58.567627 3.515625l-16.546875 0l0 10.140625q0 7.140625 -1.171875 10.671875q-2.296875 6.828125 -5.234375 6.828125l14.96875 17.53125l-8.140625 6.84375l-28.09375 -32.796875l8.15625 -6.796875l5.5 6.4375q-0.46875 0.390625 0 -0.21875q3.484375 0 3.484375 -6.5625l0 -12.078125l-18.0 0l0 -9.90625l45.078125 0l0 9.90625zm-25.625 43.34375l0 0zm2.09375 -46.859375l0 0zm-2.09375 0l0 0z" fill-rule="nonzero"/><path fill="#ffffff" d="m698.7047 158.24675l0 9.90625l-31.6875 0l-0.8125 13.453125q-0.453125 -0.6875 0.984375 -1.640625q1.4375 -0.96875 2.90625 -1.59375q1.484375 -0.640625 3.0 -0.90625q1.53125 -0.28125 3.21875 -0.28125q3.296875 0 6.03125 1.125q2.734375 1.125 4.625 3.21875q1.90625 2.078125 2.921875 4.953125q1.015625 2.859375 1.015625 6.296875q0 2.34375 -0.546875 4.640625q-0.53125 2.296875 -1.46875 4.421875q-0.921875 2.125 -2.15625 4.03125q-1.234375 1.90625 -3.921875 4.828125l-6.59375 -8.15625q1.671875 -1.765625 2.359375 -2.875q0.703125 -1.125 1.25 -2.359375q0.546875 -1.234375 0.890625 -2.46875q0.34375 -1.234375 0.34375 -2.171875q0 -1.65625 -0.5625 -2.734375q-0.546875 -1.09375 -1.359375 -1.765625q-0.796875 -0.671875 -1.703125 -0.953125q-0.90625 -0.296875 -1.5625 -0.296875q-1.375 0 -2.46875 0.375q-1.078125 0.375 -2.15625 1.109375q-1.078125 0.71875 -2.234375 1.8125q-1.140625 1.09375 -2.0 1.953125l0 22.796875l-10.53125 0l1.109375 -17.6875q0.578125 0.9375 -0.875 1.8125q-1.4375 0.875 -3.15625 1.625q-1.703125 0.75 -3.65625 1.265625q-1.9375 0.515625 -3.9375 0.515625q-4.328125 0 -7.359375 -1.359375q-3.015625 -1.375 -4.921875 -3.546875q-1.890625 -2.171875 -2.71875 -4.765625q-0.8125 -2.59375 -0.8125 -5.046875q0 -3.203125 1.21875 -5.875q1.234375 -2.671875 3.421875 -4.59375q2.203125 -1.9375 5.203125 -2.984375q3.0 -1.0625 6.53125 -1.0625q2.359375 0 4.28125 0.40625q1.9375 0.390625 3.484375 0.90625q1.546875 0.515625 2.6875 1.0625q1.140625 0.53125 0.65625 1.578125l-1.15625 -9.0625l-28.78125 0l0 -9.90625l71.0 0zm-41.9375 27.796875q-0.15625 0.234375 -1.1875 -0.375q-1.015625 -0.625 -2.34375 -1.15625q-1.328125 -0.546875 -2.984375 -0.921875q-1.65625 -0.390625 -3.71875 -0.390625q-5.953125 0 -5.953125 4.140625q0 2.625 1.421875 3.90625q1.4375 1.265625 3.96875 1.265625q1.265625 0 2.8125 -0.5625q1.546875 -0.5625 3.078125 -1.40625q1.546875 -0.859375 2.953125 -1.859375q1.40625 -1.0 1.671875 -1.203125l0.28125 -1.4375zm15.890259 -34.640625l0 0zm47.59375 16.75l-12.265625 0l0 46.8125l-10.546875 0l0 -46.8125l-5.078125 0l0 -9.90625l1.71875 1.34375q-3.640625 -1.5625 -7.046875 -4.765625q-4.0 -3.5625 -7.203125 -5.28125q-4.046875 -2.140625 -8.15625 -2.140625q-3.453125 0 -5.59375 1.78125q-2.125 1.78125 -2.125 4.96875q0 3.125 4.65625 7.125l-6.1875 7.25q-8.609375 -7.359375 -8.609375 -15.5q0 -7.453125 5.453125 -12.046875q5.0 -4.203125 12.453125 -4.203125q9.671875 0 19.21875 7.609375q4.15625 3.265625 13.890625 13.859375l15.421875 0l0 9.90625zm-47.59375 43.34375l0 0zm27.765625 -54.9375l0 0z" fill-rule="nonzero"/><path fill="#ffffff" d="m797.7189 168.153l-12.34375 0l0 46.8125l-10.546875 0l0 -46.8125l-10.359375 0l0 19.5q0 7.84375 -3.375 12.046875q-3.375 4.203125 -10.65625 4.203125q-2.71875 0 -4.96875 -0.9375q-2.25 -0.953125 -3.875 -2.6875q-1.609375 -1.75 -2.46875 -4.125q-0.859375 -2.390625 -0.859375 -5.265625q0 -2.515625 1.0 -4.703125q1.0 -2.1875 2.734375 -3.78125q1.75 -1.59375 4.03125 -2.5q2.296875 -0.90625 4.9375 -0.90625q1.296875 0 2.578125 0.203125q1.28125 0.1875 1.171875 0.984375l-0.796875 -12.03125l-20.09375 0l0 -9.90625l63.890625 0l0 9.90625zm-43.796875 20.390625q0.125 0.046875 -0.875 -0.15625q-0.984375 -0.21875 -2.078125 -0.21875q-0.640625 0 -1.234375 0.25q-0.578125 0.234375 -1.015625 0.625q-0.421875 0.390625 -0.65625 0.875q-0.21875 0.46875 -0.21875 0.96875q0 0.625 0.203125 1.140625q0.21875 0.515625 0.578125 0.875q0.375 0.359375 0.84375 0.578125q0.484375 0.203125 0.96875 0.203125q1.125 0 1.703125 -0.203125q0.578125 -0.21875 0.9375 -0.765625q0.375 -0.546875 0.609375 -1.84375q0.234375 -1.3125 0.234375 -2.328125zm89.08649 -20.390625l-13.6875 0l0 13.390625l-23.21875 0q-1.03125 0 -1.65625 0.734375q-0.625 0.734375 -0.625 1.78125q0 1.140625 0.75 1.90625q0.890625 0.90625 2.65625 0.90625q1.859375 0 5.765625 -0.6875q3.921875 -0.6875 6.0625 -0.6875q7.40625 0 11.78125 4.09375q4.09375 3.8125 4.09375 9.53125q0 6.796875 -5.453125 11.609375q-5.96875 5.328125 -12.46875 5.328125l7.5625 10.9375l-9.1875 5.578125l-11.046875 -17.609375q-2.25 -0.296875 -5.59375 -2.546875q-3.125 -2.0 -5.984375 -5.8125l7.765625 -7.078125q2.390625 3.609375 5.578125 5.15625q3.125 1.46875 5.6875 1.46875q12.5625 0 12.5625 -6.953125q0 -1.53125 -1.328125 -2.609375q-1.421875 -1.125 -3.203125 -1.125q-1.703125 0 -5.3125 0.6875q-3.609375 0.6875 -5.625 0.6875q-6.34375 0 -10.359375 -2.90625q-4.84375 -3.453125 -4.84375 -9.875q0 -5.515625 3.40625 -8.890625q3.421875 -3.390625 8.921875 -3.390625l12.78125 0l0 -3.625l-27.40625 0l0 -9.90625l18.984375 0q-3.9375 -2.9375 -3.9375 -10.828125q0 -5.9375 4.265625 -9.734375q4.265625 -3.8125 10.578125 -3.8125q2.296875 0 5.390625 0.875l0 10.015625q-3.609375 -1.765625 -5.109375 -1.765625q-5.34375 0 -5.34375 5.1875q0 2.40625 3.53125 5.640625q2.859375 2.6875 6.109375 4.421875l17.15625 0l0 9.90625zm-28.90625 -3.515625l0 0zm5.0 0l0 0zm-5.0 55.5l0 0z" fill-rule="nonzero"/></g></svg>