<svg version="1.1" viewBox="0.0 0.0 960.6377952755905 303.66141732283467" fill="none" stroke="none" stroke-linecap="square" stroke-miterlimit="10" xmlns:xlink="http://www.w3.org/1999/xlink" xmlns="http://www.w3.org/2000/svg"><clipPath id="p.0"><path d="m0 0l960.6378 0l0 303.6614l-960.6378 0l0 -303.6614z" clip-rule="nonzero"/></clipPath><g clip-path="url(#p.0)"><path fill="#000000" fill-opacity="0.0" d="m0 0l960.6378 0l0 303.6614l-960.6378 0z" fill-rule="evenodd"/><path fill="#000000" fill-opacity="0.0" d="m33.8937 27.405512l892.8504 0l0 222.99213l-892.8504 0z" fill-rule="evenodd"/><path fill="#ffffff" d="m136.79297 58.248634l10.25 0l0 58.796875l-10.25 0l0 -26.375l-24.359383 0l0 26.375l-10.234375 0l0 -58.796875l10.234375 0l0 22.171875l24.359383 0l0 -22.171875zm38.18106 59.890625q-5.796875 0 -10.5625 -2.984375q-4.765625 -2.984375 -7.609375 -8.0q-2.828125 -5.015625 -2.828125 -11.109375q0 -4.625 1.640625 -8.625q1.640625 -4.015625 4.515625 -7.0625q2.875 -3.046875 6.6875 -4.765625q3.828125 -1.71875 8.15625 -1.71875q5.796875 0 10.5625 2.984375q4.765625 2.96875 7.59375 8.015625q2.84375 5.046875 2.84375 11.171875q0 4.578125 -1.640625 8.578125q-1.625 3.984375 -4.515625 7.03125q-2.875 3.03125 -6.671875 4.765625q-3.796875 1.71875 -8.171875 1.71875zm0 -10.25q3.078125 0 5.5 -1.640625q2.4375 -1.640625 3.84375 -4.328125q1.40625 -2.6875 1.40625 -5.875q0 -3.28125 -1.453125 -5.984375q-1.4375 -2.703125 -3.90625 -4.3125q-2.453125 -1.625 -5.390625 -1.625q-3.015625 0 -5.453125 1.640625q-2.4375 1.625 -3.875 4.359375q-1.421875 2.734375 -1.421875 5.921875q0 3.3125 1.46875 6.0q1.46875 2.6875 3.921875 4.265625q2.46875 1.578125 5.359375 1.578125zm26.975327 9.15625l0 -63.0l10.234375 0l0 63.0l-10.234375 0zm20.328033 -42.0l10.234375 0l0 42.0l-10.234375 0l0 -42.0zm5.203125 -5.421875q-2.265625 0 -3.828125 -1.484375q-1.546875 -1.5 -1.546875 -3.765625q0 -2.21875 1.546875 -3.734375q1.5625 -1.515625 3.796875 -1.515625q2.21875 0 3.75 1.515625q1.53125 1.515625 1.53125 3.734375q0 2.265625 -1.515625 3.765625q-1.5 1.484375 -3.734375 1.484375zm26.885529 48.171875q-3.28125 -0.203125 -6.328125 -1.3125q-3.046875 -1.125 -5.40625 -3.046875q-2.34375 -1.9375 -3.609375 -4.625l8.65625 -3.6875q0.5 0.828125 1.640625 1.78125q1.140625 0.9375 2.703125 1.578125q1.578125 0.625 3.46875 0.625q1.5937347 0 3.0468597 -0.4375q1.453125 -0.4375 2.34375 -1.359375q0.90625 -0.9375 0.90625 -2.40625q0 -1.546875 -1.078125 -2.40625q-1.0625 -0.859375 -2.6875 -1.296875q-1.609375 -0.453125 -3.1249847 -0.828125q-3.984375 -0.796875 -7.40625 -2.46875q-3.421875 -1.6875 -5.5 -4.359375q-2.078125 -2.671875 -2.078125 -6.453125q0 -4.15625 2.203125 -7.171875q2.203125 -3.03125 5.75 -4.65625q3.546875 -1.640625 7.671875 -1.640625q4.9999847 0 9.17186 2.078125q4.1875 2.078125 6.609375 5.859375l-8.09375 4.78125q-0.59375 -1.0 -1.640625 -1.859375q-1.046875 -0.875 -2.390625 -1.4375q-1.34375 -0.5625 -2.8125 -0.65625q-1.8906097 -0.078125 -3.4531097 0.34375q-1.546875 0.421875 -2.5 1.4375q-0.9375 1.0 -0.9375 2.671875q0 1.59375 1.25 2.375q1.265625 0.78125 3.046875 1.203125q1.78125 0.421875 3.4218597 0.921875q3.703125 1.21875 6.953125 2.984375q3.25 1.765625 5.21875 4.328125q1.984375 2.5625 1.90625 6.125q0 4.078125 -2.4375 7.125q-2.4375 3.046875 -6.28125 4.640625q-3.84375 1.59375 -8.20311 1.25zm46.607437 -32.5l-8.140625 0l0 31.75l-10.2500305 0l0 -31.75l-6.21875 0l0 -10.25l6.21875 0l0 -13.1875l10.2500305 0l0 13.1875l8.140625 0l0 10.25zm6.9420166 -10.25l10.234375 0l0 42.0l-10.234375 0l0 -42.0zm5.203125 -5.421875q-2.265625 0 -3.828125 -1.484375q-1.546875 -1.5 -1.546875 -3.765625q0 -2.21875 1.546875 -3.734375q1.5625 -1.515625 3.796875 -1.515625q2.21875 0 3.75 1.515625q1.53125 1.515625 1.53125 3.734375q0 2.265625 -1.515625 3.765625q-1.5 1.484375 -3.734375 1.484375zm40.190155 34.78125l9.234375 5.0q-2.890625 3.9375 -7.265625 6.34375q-4.359375 2.390625 -9.53125 2.390625q-5.796875 0 -10.5625 -2.984375q-4.765625 -2.984375 -7.609375 -8.0q-2.828125 -5.015625 -2.828125 -11.109375q0 -4.625 1.640625 -8.625q1.640625 -4.015625 4.515625 -7.0625q2.875 -3.046875 6.6875 -4.765625q3.828125 -1.71875 8.15625 -1.71875q5.171875 0 9.53125 2.390625q4.375 2.390625 7.265625 6.421875l-9.234375 4.953125q-1.46875 -1.671875 -3.46875 -2.59375q-1.984375 -0.921875 -4.09375 -0.921875q-3.015625 0 -5.453125 1.65625q-2.4375 1.65625 -3.875 4.375q-1.421875 2.703125 -1.421875 5.890625q0 3.15625 1.421875 5.859375q1.4375 2.703125 3.875 4.34375q2.4375 1.640625 5.453125 1.640625q2.1875 0 4.15625 -0.9375q1.984375 -0.953125 3.40625 -2.546875zm68.62509 -29.359375l10.25 0l0 42.0l-10.25 0l-0.453125 -5.203125q-1.71875 2.8125 -4.5625 4.5625q-2.828125 1.734375 -6.703125 1.734375q-4.65625 0 -8.734375 -1.765625q-4.0625 -1.765625 -7.15625 -4.875q-3.09375 -3.109375 -4.84375 -7.171875q-1.734375 -4.078125 -1.734375 -8.75q0 -4.484375 1.65625 -8.4375q1.671875 -3.953125 4.640625 -6.921875q2.984375 -2.984375 6.890625 -4.65625q3.90625 -1.6875 8.40625 -1.6875q4.15625 0 7.453125 1.84375q3.296875 1.84375 5.609375 4.703125l-0.46875 -5.375zm-11.96875 33.21875q3.28125 0 5.796875 -1.625q2.515625 -1.640625 3.9375 -4.4375q1.4375 -2.796875 1.4375 -6.15625q0 -3.40625 -1.4375 -6.1875q-1.421875 -2.796875 -3.96875 -4.4375q-2.53125 -1.640625 -5.765625 -1.640625q-3.234375 0 -5.90625 1.65625q-2.65625 1.65625 -4.234375 4.4375q-1.578125 2.765625 -1.578125 6.171875q0 3.40625 1.59375 6.1875q1.609375 2.765625 4.265625 4.40625q2.671875 1.625 5.859375 1.625zm30.65982 8.78125l-0.03125 -42.0l10.234375 0l0.046875 3.734375q2.140625 -2.265625 5.125 -3.578125q2.984375 -1.328125 6.421875 -1.328125q2.3125 0 4.625 0.671875l-4.03125 10.328125q-1.59375 -0.625 -3.1875 -0.625q-2.484375 0 -4.53125 1.203125q-2.03125 1.1875 -3.234375 3.234375q-1.1875 2.03125 -1.1875 4.5l0 23.859375l-10.25 0zm55.190063 -12.640625l9.234375 5.0q-2.890625 3.9375 -7.265625 6.34375q-4.359375 2.390625 -9.53125 2.390625q-5.796875 0 -10.5625 -2.984375q-4.765625 -2.984375 -7.609375 -8.0q-2.828125 -5.015625 -2.828125 -11.109375q0 -4.625 1.640625 -8.625q1.640625 -4.015625 4.515625 -7.0625q2.875 -3.046875 6.6875 -4.765625q3.828125 -1.71875 8.15625 -1.71875q5.171875 0 9.53125 2.390625q4.375 2.390625 7.265625 6.421875l-9.234375 4.953125q-1.46875 -1.671875 -3.46875 -2.59375q-1.984375 -0.921875 -4.09375 -0.921875q-3.015625 0 -5.453125 1.65625q-2.4375 1.65625 -3.875 4.375q-1.421875 2.703125 -1.421875 5.890625q0 3.15625 1.421875 5.859375q1.4375 2.703125 3.875 4.34375q2.4375 1.640625 5.453125 1.640625q2.1875 0 4.15625 -0.9375q1.984375 -0.953125 3.40625 -2.546875zm53.975525 -13.90625l0 26.546875l-10.25 0l0 -23.859375q0 -2.46875 -1.21875 -4.5q-1.21875 -2.046875 -3.265625 -3.234375q-2.03125 -1.203125 -4.5 -1.203125q-2.484375 0 -4.53125 1.203125q-2.03125 1.1875 -3.234375 3.234375q-1.1875 2.03125 -1.1875 4.5l0 23.859375l-10.2499695 0l-0.03125 -63.0l10.2343445 0l0.046875 24.734375q2.140625 -2.265625 5.125 -3.578125q2.984375 -1.328125 6.421875 -1.328125q4.578125 0 8.359375 2.25q3.78125 2.234375 6.03125 6.0q2.25 3.765625 2.25 8.375zm8.40332 -15.453125l10.234375 0l0 42.0l-10.234375 0l0 -42.0zm5.203125 -5.421875q-2.265625 0 -3.828125 -1.484375q-1.546875 -1.5 -1.546875 -3.765625q0 -2.21875 1.546875 -3.734375q1.5625 -1.515625 3.796875 -1.515625q2.21875 0 3.75 1.515625q1.53125 1.515625 1.53125 3.734375q0 2.265625 -1.515625 3.765625q-1.5 1.484375 -3.734375 1.484375zm37.624878 15.671875l-8.140625 0l0 31.75l-10.25 0l0 -31.75l-6.21875 0l0 -10.25l6.21875 0l0 -13.1875l10.25 0l0 13.1875l8.140625 0l0 10.25zm25.116821 32.84375q-5.796875 0 -10.5625 -2.984375q-4.765625 -2.984375 -7.609375 -8.015625q-2.828125 -5.046875 -2.828125 -11.140625q0 -4.578125 1.640625 -8.578125q1.640625 -4.015625 4.515625 -7.0625q2.875 -3.046875 6.6875 -4.765625q3.828125 -1.71875 8.15625 -1.71875q4.921875 0 9.015625 2.078125q4.09375 2.078125 6.953125 5.6875q2.859375 3.609375 4.15625 8.234375q1.296875 4.625 0.578125 9.65625l-30.6875 0q0.578125 2.359375 1.921875 4.234375q1.34375 1.859375 3.40625 2.96875q2.0625 1.109375 4.65625 1.15625q2.6875 0.046875 4.890625 -1.28125q2.21875 -1.328125 3.6875 -3.59375l10.453125 2.4375q-2.5625 5.59375 -7.65625 9.140625q-5.078125 3.546875 -11.375 3.546875zm-10.328125 -26.296875l20.671875 0q-0.46875 -2.515625 -1.96875 -4.546875q-1.484375 -2.046875 -3.671875 -3.265625q-2.171875 -1.21875 -4.703125 -1.21875q-2.515625 0 -4.65625 1.203125q-2.140625 1.1875 -3.640625 3.234375q-1.484375 2.03125 -2.03125 4.59375zm64.048706 12.5625l9.234375 5.0q-2.890625 3.9375 -7.265625 6.34375q-4.359375 2.390625 -9.53125 2.390625q-5.796875 0 -10.5625 -2.984375q-4.765625 -2.984375 -7.609375 -8.0q-2.828125 -5.015625 -2.828125 -11.109375q0 -4.625 1.640625 -8.625q1.640625 -4.015625 4.515625 -7.0625q2.875 -3.046875 6.6875 -4.765625q3.828125 -1.71875 8.15625 -1.71875q5.171875 0 9.53125 2.390625q4.375 2.390625 7.265625 6.421875l-9.234375 4.953125q-1.46875 -1.671875 -3.46875 -2.59375q-1.984375 -0.921875 -4.09375 -0.921875q-3.015625 0 -5.453125 1.65625q-2.4375 1.65625 -3.875 4.375q-1.421875 2.703125 -1.421875 5.890625q0 3.15625 1.421875 5.859375q1.4375 2.703125 3.875 4.34375q2.4375 1.640625 5.453125 1.640625q2.1875 0 4.15625 -0.9375q1.984375 -0.953125 3.40625 -2.546875zm39.308838 -19.109375l-8.140625 0l0 31.75l-10.25 0l0 -31.75l-6.21875 0l0 -10.25l6.21875 0l0 -13.1875l10.25 0l0 13.1875l8.140625 0l0 10.25zm5.8845215 16.203125l0 -26.453125l10.25 0l0 23.765625q0 2.484375 1.21875 4.53125q1.21875 2.03125 3.25 3.234375q2.046875 1.1875 4.46875 1.1875q2.53125 0 4.546875 -1.1875q2.015625 -1.203125 3.234375 -3.234375q1.21875 -2.046875 1.21875 -4.53125l0 -23.765625l10.25 0l0.03125 42.0l-10.25 0l-0.03125 -3.828125q-2.1875 2.28125 -5.171875 3.609375q-2.984375 1.3125 -6.390625 1.3125q-4.578125 0 -8.359375 -2.25q-3.765625 -2.25 -6.015625 -6.0q-2.25 -3.765625 -2.25 -8.390625zm46.910767 15.546875l-0.03125 -42.0l10.234375 0l0.046875 3.734375q2.140625 -2.265625 5.125 -3.578125q2.984375 -1.328125 6.421875 -1.328125q2.3125 0 4.625 0.671875l-4.03125 10.328125q-1.59375 -0.625 -3.1875 -0.625q-2.484375 0 -4.53125 1.203125q-2.03125 1.1875 -3.234375 3.234375q-1.1875 2.03125 -1.1875 4.5l0 23.859375l-10.25 0zm47.627563 1.09375q-5.796875 0 -10.5625 -2.984375q-4.765625 -2.984375 -7.609375 -8.015625q-2.828125 -5.046875 -2.828125 -11.140625q0 -4.578125 1.640625 -8.578125q1.640625 -4.015625 4.515625 -7.0625q2.875 -3.046875 6.6875 -4.765625q3.828125 -1.71875 8.15625 -1.71875q4.921875 0 9.015625 2.078125q4.09375 2.078125 6.953125 5.6875q2.859375 3.609375 4.15625 8.234375q1.296875 4.625 0.578125 9.65625l-30.6875 0q0.578125 2.359375 1.921875 4.234375q1.34375 1.859375 3.40625 2.96875q2.0625 1.109375 4.65625 1.15625q2.6875 0.046875 4.890625 -1.28125q2.21875 -1.328125 3.6875 -3.59375l10.453125 2.4375q-2.5625 5.59375 -7.65625 9.140625q-5.078125 3.546875 -11.375 3.546875zm-10.328125 -26.296875l20.671875 0q-0.46875 -2.515625 -1.96875 -4.546875q-1.484375 -2.046875 -3.671875 -3.265625q-2.171875 -1.21875 -4.703125 -1.21875q-2.515625 0 -4.65625 1.203125q-2.140625 1.1875 -3.640625 3.234375q-1.484375 2.03125 -2.03125 4.59375zm36.329956 29.90625l2.609375 -14.1875l10.25 0l-6.015625 14.1875l-6.84375 0z" fill-rule="nonzero"/><path fill="#ffffff" d="m128.85724 186.09552l-8.140633 0l0 31.75l-10.25 0l0 -31.75l-6.21875 0l0 -10.25l6.21875 0l0 -13.1875l10.25 0l0 13.1875l8.140633 0l0 10.25zm46.040787 5.203125l0 26.546875l-10.25 0l0 -23.859375q0 -2.46875 -1.21875 -4.5q-1.21875 -2.046875 -3.265625 -3.234375q-2.03125 -1.203125 -4.5 -1.203125q-2.484375 0 -4.53125 1.203125q-2.03125 1.1875 -3.234375 3.234375q-1.1875 2.03125 -1.1875 4.5l0 23.859375l-10.25 0l-0.03125 -63.0l10.234375 0l0.046875 24.734375q2.140625 -2.265625 5.125 -3.578125q2.984375 -1.328125 6.421875 -1.328125q4.578125 0 8.359375 2.25q3.78125 2.234375 6.03125 6.0q2.25 3.765625 2.25 8.375zm26.032059 27.640625q-5.796875 0 -10.5625 -2.984375q-4.765625 -2.984375 -7.609375 -8.0q-2.828125 -5.015625 -2.828125 -11.109375q0 -4.625 1.640625 -8.625q1.640625 -4.015625 4.515625 -7.0625q2.875 -3.046875 6.6875 -4.765625q3.828125 -1.71875 8.15625 -1.71875q5.796875 0 10.5625 2.984375q4.765625 2.96875 7.59375 8.015625q2.84375 5.046875 2.84375 11.171875q0 4.578125 -1.640625 8.578125q-1.625 3.984375 -4.515625 7.03125q-2.875 3.03125 -6.671875 4.765625q-3.796875 1.71875 -8.171875 1.71875zm0 -10.25q3.078125 0 5.5 -1.640625q2.4375 -1.640625 3.84375 -4.328125q1.40625 -2.6875 1.40625 -5.875q0 -3.28125 -1.453125 -5.984375q-1.4375 -2.703125 -3.90625 -4.3125q-2.453125 -1.625 -5.390625 -1.625q-3.015625 0 -5.453125 1.640625q-2.4375 1.625 -3.875 4.359375q-1.421875 2.734375 -1.421875 5.921875q0 3.3125 1.46875 6.0q1.46875 2.6875 3.921875 4.265625q2.46875 1.578125 5.359375 1.578125zm24.951813 -6.390625l0 -26.453125l10.25 0l0 23.765625q0 2.484375 1.21875 4.53125q1.21875 2.03125 3.25 3.234375q2.046875 1.1875 4.46875 1.1875q2.53125 0 4.546875 -1.1875q2.015625 -1.203125 3.234375 -3.234375q1.21875 -2.046875 1.21875 -4.53125l0 -23.765625l10.25 0l0.03125 42.0l-10.25 0l-0.03125 -3.828125q-2.1875 2.28125 -5.171875 3.609375q-2.984375 1.3125 -6.390625 1.3125q-4.578125 0 -8.359375 -2.25q-3.765625 -2.25 -6.015625 -6.0q-2.25 -3.765625 -2.25 -8.390625zm77.40579 -26.453125l10.25 0l0 42.796875q0 4.53125 -1.859375 8.25q-1.84375 3.71875 -5.03125 6.390625q-3.1875 2.671875 -7.3125 4.109375q-4.109375 1.453125 -8.640625 1.453125q-4.421875 0 -8.5 -1.8125q-4.0625 -1.796875 -7.203125 -4.9375q-3.125 -3.125 -4.75 -7.109375l9.359375 -4.25q0.84375 2.3125 2.546875 4.046875q1.703125 1.75 3.921875 2.734375q2.21875 1.0 4.625 1.0q2.4375 0 4.671875 -0.671875q2.25 -0.671875 4.046875 -1.953125q1.8125 -1.28125 2.84375 -3.109375q1.03125 -1.828125 1.03125 -4.140625l0 -5.921875q-1.96875 2.765625 -4.953125 4.5q-2.984375 1.71875 -6.890625 1.71875q-4.53125 0 -8.484375 -1.71875q-3.953125 -1.734375 -6.953125 -4.765625q-3.0 -3.046875 -4.703125 -7.03125q-1.703125 -4.0 -1.703125 -8.578125q0 -4.578125 1.703125 -8.5625q1.703125 -4.0 4.703125 -7.03125q3.0 -3.046875 6.953125 -4.765625q3.953125 -1.734375 8.484375 -1.734375q3.90625 0 6.890625 1.703125q2.984375 1.703125 4.953125 4.46875l0 -5.078125zm-11.71875 33.21875q3.234375 0 5.734375 -1.65625q2.5 -1.65625 3.921875 -4.453125q1.4375 -2.796875 1.4375 -6.109375q0 -3.359375 -1.453125 -6.125q-1.453125 -2.78125 -3.953125 -4.453125q-2.5 -1.6875 -5.6875 -1.6875q-3.140625 0 -5.75 1.65625q-2.609375 1.65625 -4.171875 4.4375q-1.546875 2.765625 -1.546875 6.171875q0 3.40625 1.546875 6.1875q1.5625 2.765625 4.171875 4.40625q2.609375 1.625 5.75 1.625zm70.523315 -17.765625l0 26.546875l-10.25 0l0 -23.859375q0 -2.46875 -1.21875 -4.5q-1.21875 -2.046875 -3.265625 -3.234375q-2.03125 -1.203125 -4.5 -1.203125q-2.484375 0 -4.53125 1.203125q-2.03125 1.1875 -3.234375 3.234375q-1.1875 2.03125 -1.1875 4.5l0 23.859375l-10.25 0l-0.03125 -63.0l10.234375 0l0.046875 24.734375q2.140625 -2.265625 5.125 -3.578125q2.984375 -1.328125 6.421875 -1.328125q4.578125 0 8.359375 2.25q3.78125 2.234375 6.03125 6.0q2.25 3.765625 2.25 8.375zm30.90332 -5.203125l-8.140625 0l0 31.75l-10.25 0l0 -31.75l-6.21875 0l0 -10.25l6.21875 0l0 -13.1875l10.25 0l0 13.1875l8.140625 0l0 10.25zm19.447052 -19.0625l0 8.8125l11.46875 0l0 10.25l-11.46875 0l0 31.75l-10.25 0l0 -31.75l-4.578125 0l0 -10.25l4.578125 0l0 -8.8125q0 -3.625 1.78125 -6.625q1.796875 -3.0 4.8125 -4.78125q3.03125 -1.796875 6.6875 -1.796875q2.640625 0 5.234375 1.09375q2.609375 1.09375 4.625 3.359375l-7.390625 7.234375q-0.375 -0.71875 -1.078125 -1.078125q-0.6875 -0.359375 -1.390625 -0.359375q-1.21875 0 -2.125 0.875q-0.90625 0.859375 -0.90625 2.078125zm17.433533 35.265625l0 -26.453125l10.25 0l0 23.765625q0 2.484375 1.21875 4.53125q1.21875 2.03125 3.25 3.234375q2.046875 1.1875 4.46875 1.1875q2.53125 0 4.546875 -1.1875q2.015625 -1.203125 3.234375 -3.234375q1.21875 -2.046875 1.21875 -4.53125l0 -23.765625l10.25 0l0.03125 42.0l-10.25 0l-0.03125 -3.828125q-2.1875 2.28125 -5.171875 3.609375q-2.984375 1.3125 -6.390625 1.3125q-4.578125 0 -8.359375 -2.25q-3.765625 -2.25 -6.015625 -6.0q-2.25 -3.765625 -2.25 -8.390625zm47.08957 15.546875l0 -63.0l10.234375 0l0 63.0l-10.234375 0zm20.328033 0l0 -63.0l10.234375 0l0 63.0l-10.234375 0zm46.242554 -42.0l10.874939 0l-22.984314 63.0l-10.875 0l7.609375 -21.0l-15.125 -42.0l11.21875 0l9.03125 27.96875l10.25 -27.96875zm65.46881 29.359375l9.234375 5.0q-2.890625 3.9375 -7.265625 6.34375q-4.359375 2.390625 -9.53125 2.390625q-5.796875 0 -10.5625 -2.984375q-4.765625 -2.984375 -7.609375 -8.0q-2.828125 -5.015625 -2.828125 -11.109375q0 -4.625 1.640625 -8.625q1.640625 -4.015625 4.515625 -7.0625q2.875 -3.046875 6.6875 -4.765625q3.828125 -1.71875 8.15625 -1.71875q5.171875 0 9.53125 2.390625q4.375 2.390625 7.265625 6.421875l-9.234375 4.953125q-1.46875 -1.671875 -3.46875 -2.59375q-1.984375 -0.921875 -4.09375 -0.921875q-3.015625 0 -5.453125 1.65625q-2.4375 1.65625 -3.875 4.375q-1.421875 2.703125 -1.421875 5.890625q0 3.15625 1.421875 5.859375q1.4375 2.703125 3.875 4.34375q2.4375 1.640625 5.453125 1.640625q2.1875 0 4.15625 -0.9375q1.984375 -0.953125 3.40625 -2.546875zm16.840088 12.640625l-0.03125 -42.0l10.234375 0l0.046875 3.734375q2.140625 -2.265625 5.125 -3.578125q2.984375 -1.328125 6.421875 -1.328125q2.3125 0 4.625 0.671875l-4.03125 10.328125q-1.59375 -0.625 -3.1875 -0.625q-2.484375 0 -4.53125 1.203125q-2.03125 1.1875 -3.234375 3.234375q-1.1875 2.03125 -1.1875 4.5l0 23.859375l-10.25 0zm60.815063 -42.0l10.25 0l0 42.0l-10.25 0l-0.453125 -5.203125q-1.71875 2.8125 -4.5625 4.5625q-2.828125 1.734375 -6.703125 1.734375q-4.65625 0 -8.734375 -1.765625q-4.0625 -1.765625 -7.15625 -4.875q-3.09375 -3.109375 -4.84375 -7.171875q-1.734375 -4.078125 -1.734375 -8.75q0 -4.484375 1.65625 -8.4375q1.671875 -3.953125 4.640625 -6.921875q2.984375 -2.984375 6.890625 -4.65625q3.90625 -1.6875 8.40625 -1.6875q4.15625 0 7.453125 1.84375q3.296875 1.84375 5.609375 4.703125l-0.46875 -5.375zm-11.96875 33.21875q3.28125 0 5.796875 -1.625q2.515625 -1.640625 3.9375 -4.4375q1.4375 -2.796875 1.4375 -6.15625q0 -3.40625 -1.4375 -6.1875q-1.421875 -2.796875 -3.96875 -4.4375q-2.53125 -1.640625 -5.765625 -1.640625q-3.234375 0 -5.90625 1.65625q-2.65625 1.65625 -4.234375 4.4375q-1.578125 2.765625 -1.578125 6.171875q0 3.40625 1.59375 6.1875q1.609375 2.765625 4.265625 4.40625q2.671875 1.625 5.859375 1.625zm42.50354 -42.03125l0 8.8125l11.46875 0l0 10.25l-11.46875 0l0 31.75l-10.25 0l0 -31.75l-4.578125 0l0 -10.25l4.578125 0l0 -8.8125q0 -3.625 1.78125 -6.625q1.796875 -3.0 4.8125 -4.78125q3.03125 -1.796875 6.6875 -1.796875q2.640625 0 5.234375 1.09375q2.609375 1.09375 4.625 3.359375l-7.390625 7.234375q-0.375 -0.71875 -1.078125 -1.078125q-0.6875 -0.359375 -1.390625 -0.359375q-1.21875 0 -2.125 0.875q-0.90625 0.859375 -0.90625 2.078125zm42.29309 19.0625l-8.140625 0l0 31.75l-10.25 0l0 -31.75l-6.21875 0l0 -10.25l6.21875 0l0 -13.1875l10.25 0l0 13.1875l8.140625 0l0 10.25zm25.1167 32.84375q-5.796875 0 -10.5625 -2.984375q-4.765625 -2.984375 -7.609375 -8.015625q-2.828125 -5.046875 -2.828125 -11.140625q0 -4.578125 1.640625 -8.578125q1.640625 -4.015625 4.515625 -7.0625q2.875 -3.046875 6.6875 -4.765625q3.828125 -1.71875 8.15625 -1.71875q4.921875 0 9.015625 2.078125q4.09375 2.078125 6.953125 5.6875q2.859375 3.609375 4.15625 8.234375q1.296875 4.625 0.578125 9.65625l-30.6875 0q0.578125 2.359375 1.921875 4.234375q1.34375 1.859375 3.40625 2.96875q2.0625 1.109375 4.65625 1.15625q2.6875 0.046875 4.890625 -1.28125q2.21875 -1.328125 3.6875 -3.59375l10.453125 2.4375q-2.5625 5.59375 -7.65625 9.140625q-5.078125 3.546875 -11.375 3.546875zm-10.328125 -26.296875l20.671875 0q-0.46875 -2.515625 -1.96875 -4.546875q-1.484375 -2.046875 -3.671875 -3.265625q-2.171875 -1.21875 -4.703125 -1.21875q-2.515625 0 -4.65625 1.203125q-2.140625 1.1875 -3.640625 3.234375q-1.484375 2.03125 -2.03125 4.59375zm69.767456 -37.796875l10.25 0l0 63.0l-10.25 0l0 -5.25q-2.015625 2.8125 -5.09375 4.578125q-3.0625 1.765625 -7.09375 1.765625q-4.578125 0 -8.578125 -1.71875q-3.984375 -1.734375 -7.03125 -4.765625q-3.03125 -3.046875 -4.765625 -7.03125q-1.71875 -4.0 -1.71875 -8.578125q0 -4.578125 1.71875 -8.5625q1.734375 -4.0 4.765625 -7.03125q3.046875 -3.046875 7.03125 -4.765625q4.0 -1.734375 8.578125 -1.734375q4.03125 0 7.09375 1.75q3.078125 1.734375 5.09375 4.59375l0 -26.25zm-12.0625 54.21875q3.28125 0 5.796875 -1.625q2.515625 -1.640625 3.9375 -4.4375q1.4375 -2.796875 1.4375 -6.15625q0 -3.40625 -1.4375 -6.1875q-1.421875 -2.796875 -3.96875 -4.4375q-2.53125 -1.640625 -5.765625 -1.640625q-3.234375 0 -5.90625 1.65625q-2.65625 1.65625 -4.234375 4.4375q-1.578125 2.765625 -1.578125 6.171875q0 3.40625 1.59375 6.1875q1.609375 2.765625 4.265625 4.40625q2.671875 1.625 5.859375 1.625z" fill-rule="nonzero"/></g></svg>