<svg version="1.1" viewBox="0.0 0.0 960.6377952755905 303.66141732283467" fill="none" stroke="none" stroke-linecap="square" stroke-miterlimit="10" xmlns:xlink="http://www.w3.org/1999/xlink" xmlns="http://www.w3.org/2000/svg"><clipPath id="p.0"><path d="m0 0l960.6378 0l0 303.6614l-960.6378 0l0 -303.6614z" clip-rule="nonzero"/></clipPath><g clip-path="url(#p.0)"><path fill="#000000" fill-opacity="0.0" d="m0 0l960.6378 0l0 303.6614l-960.6378 0z" fill-rule="evenodd"/><path fill="#000000" fill-opacity="0.0" d="m33.8937 27.405512l892.8504 0l0 222.99213l-892.8504 0z" fill-rule="evenodd"/><path fill="#ffffff" d="m259.88437 69.467384l-12.515625 0l0 47.578125l-10.71875 0l0 -22.5625l-18.515625 0q-1.515625 4.15625 -4.234375 4.734375l13.6875 16.15625l-8.25 6.984375l-26.390625 -31.140625l8.3125 -6.984375l5.578125 6.671875q-0.8125 0.6875 -0.421875 -0.375q3.953125 0 3.953125 -11.203125l0 -9.859375l-18.296875 0l0 -10.0625l67.8125 0l0 10.0625zm-37.046875 44.046875l0 0zm0 -47.609375l0 0zm13.8125 18.515625l0 -14.953125l-15.5625 0l0 9.859375q0 4.46875 -0.09375 5.09375l15.65625 0zm3.609375 -18.515625l0 0zm0 47.609375l0 0zm9.921875 -69.953125l-8.171875 8.171875l-8.21875 -8.171875l8.21875 -8.171875l8.171875 8.171875zm-9.921875 22.34375l0 0zm69.984375 3.5625l-12.5 0l0 47.578125l-10.71875 0l0 -18.09375q-2.515625 1.6875 -8.953125 1.6875q-7.640625 0 -13.296875 -4.609375q-6.171875 -5.015625 -6.171875 -12.734375l0 -13.828125l-5.171875 0l0 -10.0625l56.8125 0l0 10.0625zm-31.546875 44.046875l0 0zm0 -47.609375l0 0zm8.328125 21.1875l0 -17.625l-17.703125 0l0 12.03125q0 4.21875 2.953125 6.53125q2.65625 2.015625 6.5625 2.015625q4.84375 0 8.1875 -2.953125zm3.609375 -21.1875l0 0zm0 47.609375l0 0zm31.080078 28.511726l-7.96875 7.296875l-15.359375 -17.015625q-2.71875 -3.0 -3.125 -3.34375q-1.46875 -1.2500076 -3.125 -1.2500076q-2.71875 0 -2.71875 2.7656326q0 2.796875 5.78125 2.796875l-2.09375 9.078125q-5.8125 0 -9.203125 -2.671875q-4.34375 -3.484375 -4.34375 -9.859375q0 -5.9062576 4.296875 -9.578133q3.65625 -3.09375 8.28125 -3.09375q7.09375 0 12.859375 6.40625l16.71875 18.468758zm-31.09375 -21.375008l0 0zm86.896484 -51.183594l-12.515625 0l0 47.578125l-10.71875 0l0 -47.578125l-10.53125 0l0 17.609375q0 7.890625 -5.0625 12.34375q-4.765625 4.21875 -12.640625 4.21875q-6.84375 0 -11.96875 -4.84375q-5.109375 -4.859375 -5.109375 -11.71875l0 -17.609375l-5.171875 0l0 -10.0625l73.71875 0l0 10.0625zm-40.0 44.046875l0 0zm0 -47.609375l0 0zm-4.484375 21.171875l0 -17.609375l-13.34375 0l0 17.609375q0 2.1875 2.0625 3.9375q2.078125 1.734375 4.46875 1.734375q2.625 0 4.734375 -1.65625q2.078125 -1.6875 2.078125 -4.015625zm24.859375 -21.171875l0 0zm0 47.609375l0 0zm6.703125 -52.734375l-4.15625 9.125q-8.15625 -3.984375 -12.5 -8.46875q-5.796875 -5.984375 -5.796875 -12.5q0 -6.515625 4.171875 -10.40625q4.15625 -3.90625 10.90625 -3.90625q2.390625 0 5.484375 0.875l0 10.203125q-3.671875 -1.78125 -5.1875 -1.78125q-5.4375 0 -5.4375 5.25q0 4.984375 12.515625 11.609375zm-6.703125 5.125l0 0z" fill-rule="nonzero"/><path fill="#ffffff" d="m448.0366 69.467384l-12.5 0l0 47.578125l-10.71875 0l0.671875 -11.84375q0.265625 0.640625 -1.59375 1.578125q-1.859375 0.921875 -3.78125 1.484375q-1.90625 0.546875 -3.8125 0.765625q-1.90625 0.21875 -3.8125 0.21875q-3.671875 0 -6.921875 -1.40625q-3.234375 -1.421875 -5.609375 -3.84375q-2.359375 -2.4375 -3.734375 -5.6875q-1.359375 -3.25 -1.359375 -6.96875q0 -3.84375 1.515625 -7.03125q1.53125 -3.1875 4.171875 -5.46875q2.640625 -2.296875 6.203125 -3.515625q3.5625 -1.234375 7.671875 -1.234375q2.25 0 4.1875 0.359375q1.953125 0.34375 3.59375 0.84375q1.640625 0.5 2.9375 1.0625q1.3125 0.5625 0.84375 1.625l-1.171875 -8.515625l-33.59375 0l0 -10.0625l56.8125 0l0 10.0625zm-23.21875 16.953125q-0.125 -0.0625 -1.5 -0.640625q-1.359375 -0.59375 -2.859375 -1.09375q-1.484375 -0.515625 -2.984375 -0.8125q-1.5 -0.296875 -2.8125 -0.296875q-3.5625 0 -5.5 0.9375q-1.921875 0.921875 -2.84375 2.140625q-0.921875 1.21875 -1.171875 2.625q-0.25 1.390625 -0.25 2.4375q0 1.625 0.625 3.046875q0.640625 1.40625 1.75 2.46875q1.109375 1.0625 2.625 1.671875q1.53125 0.609375 3.296875 0.609375q2.46875 0 4.515625 -0.6875q2.0625 -0.6875 3.625 -1.59375q1.5625 -0.921875 2.546875 -1.8125q1.0 -0.90625 0.9375 -0.828125l0 -8.171875zm11.7265625 -20.515625l0 0zm33.40625 3.5625l-12.515625 0l0 47.578125l-10.71875 0l0 -47.578125l-5.125 0l0 -10.0625l28.359375 0l0 10.0625zm-33.40625 44.046875l0 0zm13.25 -47.609375l0 0zm66.49606 28.578125l-26.734344 0q-1.515625 4.15625 -4.234375 4.734375l13.6875 16.15625l-8.25 6.984375l-26.390625 -31.140625l8.3125 -6.984375l5.578125 6.671875q-0.8125 0.6875 -0.421875 -0.375q3.953125 0 3.953125 -11.203125l0 -9.859375l-18.296875 0l0 -10.0625l54.68747 0l0 10.0625l-25.671844 0l0 9.859375q0 4.46875 -0.09375 5.09375l23.87497 0l0 10.0625zm57.75 -25.015625l-11.6875 0l0 47.578125l-10.71875 0l0 -26.375l-18.921875 0q-3.171875 0 -5.0 1.796875q-1.828125 1.78125 -1.828125 4.828125q0 4.59375 3.8125 9.0q0.921875 1.09375 9.5625 8.828125l-8.34375 7.171875q-15.75 -14.21875 -15.75 -24.515625q0 -7.734375 4.328125 -12.453125q4.328125 -4.71875 12.109375 -4.71875l20.03125 0l0 -11.140625l-39.90622 0l0 -10.0625l62.31247 0l0 10.0625zm-33.484375 50.203125l0 0zm0 -53.765625l0 0zm14.6875 0l0 0zm0 47.609375l0 0zm-0.8300781 7.1367188l0 0zm16.390625 13.875008q0 8.359375 -6.09375 13.15625q-5.421875 4.265625 -13.75 4.265625q-8.828125 0 -22.921875 -8.03125l4.984375 -9.53125q12.234375 6.8125 18.140625 6.8125q3.90625 0 6.390625 -1.65625q2.65625 -1.703125 2.65625 -4.96875q0 -2.0625 -1.40625 -3.5q-1.40625 -1.4375 -3.453125 -1.4375q-4.21875 0 -8.609375 3.796875l-4.4375 -9.515633q5.765625 -5.125 12.875 -5.125q6.484375 0 11.0625 4.671875q4.5625 4.6562576 4.5625 11.062508zm34.615234 -57.167976q0 3.828125 -0.953125 7.4375q-0.9375 3.59375 -2.859375 6.625q-1.90625 3.03125 -4.78125 5.328125q-2.875 2.28125 -4.03125 2.625l12.40625 13.609375l-7.953125 7.28125l-26.484375 -28.8125l7.953125 -7.359375l6.203125 6.78125q-0.65625 0.578125 0 -0.296875q1.9375 0 3.71875 -0.96875q1.78125 -0.984375 3.1875 -2.765625q1.421875 -1.78125 2.265625 -4.21875q0.859375 -2.453125 0.859375 -5.265625q0 -0.34375 -0.0625 -0.765625q-0.046875 -0.421875 1.5 -0.65625q0.59375 1.96875 -0.78125 3.25q-1.359375 1.28125 -3.03125 2.1875q-1.671875 0.90625 -3.578125 1.390625q-1.890625 0.484375 -3.875 0.484375q-3.1875 0 -5.671875 -0.96875q-2.46875 -0.96875 -4.171875 -2.640625q-1.703125 -1.671875 -2.546875 -3.90625q-0.84375 -2.25 -0.84375 -4.734375q0 -2.96875 1.203125 -5.5q1.203125 -2.53125 3.265625 -4.390625q2.0625 -1.859375 4.78125 -2.859375q2.734375 -1.015625 5.796875 -1.015625q4.21875 0 7.65625 1.46875q3.4375 1.453125 5.84375 4.15625q2.421875 2.6875 3.703125 6.375q1.28125 3.6875 1.28125 8.125zm29.90625 -7.890625l-12.515625 0l0 47.578125l-10.71875 0l0 -47.578125l-5.125 0l0 -10.0625l28.359375 0l0 10.0625zm-43.640625 0.265625q-0.421875 -0.5625 -1.875 -1.421875q-1.4375 -0.859375 -2.875 -0.859375q-1.125 0 -2.046875 0.296875q-0.90625 0.28125 -1.484375 0.734375q-0.5625 0.4375 -0.859375 1.0625q-0.296875 0.609375 -0.296875 1.453125q0 0.453125 0.234375 0.84375q0.234375 0.375 0.71875 0.734375q0.5 0.359375 1.21875 0.5625q0.71875 0.203125 1.53125 0.203125q0.8125 0 1.578125 -0.15625q0.765625 -0.15625 1.5 -0.609375q0.75 -0.46875 1.5625 -1.390625q0.8125 -0.921875 1.09375 -1.453125zm32.13672 -3.828125l0 0zm33.40625 3.5625l-12.515625 0l0 47.578125l-10.71875 0l0 -47.578125l-5.125 0l0 -10.0625l28.359375 0l0 10.0625zm-33.40625 44.046875l0 0zm13.25 -47.609375l0 0zm66.49609 28.578125l-26.734375 0q-1.515625 4.15625 -4.234375 4.734375l13.6875 16.15625l-8.25 6.984375l-26.390625 -31.140625l8.3125 -6.984375l5.578125 6.671875q-0.8125 0.6875 -0.421875 -0.375q3.953125 0 3.953125 -11.203125l0 -9.859375l-18.296875 0l0 -10.0625l54.6875 0l0 10.0625l-25.671875 0l0 9.859375q0 4.46875 -0.09375 5.09375l23.875 0l0 10.0625zm36.921875 -25.015625l-41.484375 0l0 -10.0625l41.484375 0l0 10.0625zm-1.890625 29.1875l-26.4375 11.40625l-3.84375 -9.296875l20.0625 -8.234375q-4.109375 -5.1875 -11.09375 -5.1875q-3.953125 0 -7.953125 4.9375l-4.078125 -10.390625q6.0625 -4.9375 12.390625 -4.9375q5.453125 0 12.609375 5.171875q5.75 4.1875 8.34375 8.171875l0 8.359375zm-15.4375 -32.75l0 0zm0 47.578125l0 0zm30.453125 -44.015625l-12.515625 0l0 47.578125l-10.71875 0l1.015625 -48.59375l-1.75 1.015625l0 -10.0625l23.96875 0l0 10.0625zm-19.625 44.046875l0 0zm0 -47.609375l0 0z" fill-rule="nonzero"/><path fill="#ffffff" d="m750.59515 121.748634l2.609375 -14.1875l10.25 0l-6.015625 14.1875l-6.84375 0z" fill-rule="nonzero"/><path fill="#ffffff" d="m204.95374 153.25177l0 0zm42.796875 9.5625l-4.0625 7.84375q-26.34375 -21.65625 -44.140625 -22.046875q-4.84375 0 -7.890625 1.640625q-3.390625 1.84375 -3.390625 5.671875q0 3.078125 2.15625 4.28125l17.375 0l0 10.0625l-12.4375 0l0 47.578125l-10.71875 0l0 -47.578125l-9.546875 0l0 -10.0625l3.234375 0q-0.40625 -0.90625 -0.40625 -4.65625q0 -8.734375 6.390625 -13.265625q5.453125 -3.90625 14.140625 -3.90625q12.765625 0 26.796875 7.90625q8.5 4.921875 22.5 16.53125zm-42.796875 51.5l0 0zm53.203125 -44.046875l-12.5 0l0 47.578125l-10.71875 0l0.671875 -11.84375q0.265625 0.640625 -1.59375 1.578125q-1.859375 0.921875 -3.78125 1.484375q-1.90625 0.546875 -3.8125 0.765625q-1.90625 0.21875 -3.8125 0.21875q-3.671875 0 -6.921875 -1.40625q-3.234375 -1.421875 -5.609375 -3.84375q-2.359375 -2.4375 -3.734375 -5.6875q-1.359375 -3.25 -1.359375 -6.96875q0 -3.84375 1.515625 -7.03125q1.53125 -3.1875 4.171875 -5.46875q2.640625 -2.296875 6.203125 -3.515625q3.5625 -1.234375 7.671875 -1.234375q2.25 0 4.1875 0.359375q1.953125 0.34375 3.59375 0.84375q1.640625 0.5 2.9375 1.0625q1.3125 0.5625 0.84375 1.625l-1.171875 -8.515625l-33.59375 0l0 -10.0625l56.8125 0l0 10.0625zm-23.21875 16.953125q-0.125 -0.0625 -1.5 -0.640625q-1.359375 -0.59375 -2.859375 -1.09375q-1.484375 -0.515625 -2.984375 -0.8125q-1.5 -0.296875 -2.8125 -0.296875q-3.5625 0 -5.5 0.9375q-1.921875 0.921875 -2.84375 2.140625q-0.921875 1.21875 -1.171875 2.625q-0.25 1.390625 -0.25 2.4375q0 1.625 0.625 3.046875q0.640625 1.40625 1.75 2.46875q1.109375 1.0625 2.625 1.671875q1.53125 0.609375 3.296875 0.609375q2.46875 0 4.515625 -0.6875q2.0625 -0.6875 3.625 -1.59375q1.5625 -0.921875 2.546875 -1.8125q1.0 -0.90625 0.9375 -0.828125l0 -8.171875zm82.36719 -16.953125l-12.515625 0l0 47.578125l-10.71875 0l0 -11.203125q-4.171875 3.15625 -11.9375 3.15625q-7.8125 0 -13.15625 -4.125q-5.328125 -4.140625 -5.328125 -10.75q0 -5.6875 2.375 -8.421875l-9.84375 0l0 -10.0625l30.609375 0l0 10.0625l-7.890625 0q-4.953125 4.046875 -4.953125 7.65625q0 6.078125 8.34375 6.078125q2.671875 0 6.484375 -1.671875q3.6875 -1.625 5.296875 -3.15625l0 -25.140625l-42.359375 0l0 -10.0625l65.59375 0l0 10.0625zm-35.9375 44.046875l0 0zm0 -47.609375l0 0zm16.3125 0l0 0zm0 47.609375l0 0zm8.128906 -47.609375l0 0zm33.40625 3.5625l-12.515625 0l0 47.578125l-10.71875 0l0 -47.578125l-5.125 0l0 -10.0625l28.359375 0l0 10.0625zm-33.40625 44.046875l0 0zm13.25 -47.609375l0 0zm59.527344 3.5625l-16.8125 0l0 10.3125q0 7.25 -1.203125 10.859375q-2.34375 6.921875 -5.328125 6.921875l15.203125 17.8125l-8.25 6.96875l-28.578125 -33.34375l8.328125 -6.921875l5.578125 6.5625q-0.5 0.40625 -0.015625 -0.234375q3.546875 0 3.546875 -6.65625l0 -12.28125l-18.296875 0l0 -10.0625l45.828125 0l0 10.0625zm-26.0625 44.046875l0 0zm2.140625 -47.609375l0 0zm-2.140625 0l0 0zm76.421875 3.5625l-12.5 0l0 47.578125l-10.71875 0l0 -18.09375q-2.515625 1.6875 -8.953125 1.6875q-7.640625 0 -13.296875 -4.609375q-6.171875 -5.015625 -6.171875 -12.734375l0 -13.828125l-5.171875 0l0 -10.0625l56.8125 0l0 10.0625zm-31.546875 44.046875l0 0zm0 -47.609375l0 0zm8.328125 21.1875l0 -17.625l-17.703125 0l0 12.03125q0 4.21875 2.953125 6.53125q2.65625 2.015625 6.5625 2.015625q4.84375 0 8.1875 -2.953125zm3.609375 -21.1875l0 0zm0 47.609375l0 0zm31.080078 28.511719l-7.96875 7.296875l-15.359375 -17.015625q-2.71875 -3.0 -3.125 -3.34375q-1.46875 -1.25 -3.125 -1.25q-2.71875 0 -2.71875 2.765625q0 2.796875 5.78125 2.796875l-2.09375 9.078125q-5.8125 0 -9.203125 -2.671875q-4.34375 -3.484375 -4.34375 -9.859375q0 -5.90625 4.296875 -9.578125q3.65625 -3.09375 8.28125 -3.09375q7.09375 0 12.859375 6.40625l16.71875 18.46875zm-31.09375 -21.375l0 0zm69.990234 -51.183594l-12.5 0l0 47.578125l-10.71875 0l0.671875 -11.84375q0.265625 0.640625 -1.59375 1.578125q-1.859375 0.921875 -3.78125 1.484375q-1.90625 0.546875 -3.8125 0.765625q-1.90625 0.21875 -3.8125 0.21875q-3.671875 0 -6.921875 -1.40625q-3.234375 -1.421875 -5.609375 -3.84375q-2.359375 -2.4375 -3.734375 -5.6875q-1.359375 -3.25 -1.359375 -6.96875q0 -3.84375 1.515625 -7.03125q1.53125 -3.1875 4.171875 -5.46875q2.640625 -2.296875 6.203125 -3.515625q3.5625 -1.234375 7.671875 -1.234375q2.25 0 4.1875 0.359375q1.953125 0.34375 3.59375 0.84375q1.640625 0.5 2.9375 1.0625q1.3125 0.5625 0.84375 1.625l-1.171875 -8.515625l-33.59375 0l0 -10.0625l56.8125 0l0 10.0625zm-23.21875 16.953125q-0.125 -0.0625 -1.5 -0.640625q-1.359375 -0.59375 -2.859375 -1.09375q-1.484375 -0.515625 -2.984375 -0.8125q-1.5 -0.296875 -2.8125 -0.296875q-3.5625 0 -5.5 0.9375q-1.921875 0.921875 -2.84375 2.140625q-0.921875 1.21875 -1.171875 2.625q-0.25 1.390625 -0.25 2.4375q0 1.625 0.625 3.046875q0.640625 1.40625 1.75 2.46875q1.109375 1.0625 2.625 1.671875q1.53125 0.609375 3.296875 0.609375q2.46875 0 4.515625 -0.6875q2.0625 -0.6875 3.625 -1.59375q1.5625 -0.921875 2.546875 -1.8125q1.0 -0.90625 0.9375 -0.828125l0 -8.171875zm10.3046875 -25.640625l-4.15625 9.125q-8.15625 -3.984375 -12.5 -8.46875q-5.796875 -5.984375 -5.796875 -12.5q0 -6.515625 4.171875 -10.40625q4.15625 -3.90625 10.90625 -3.90625q2.390625 0 5.484375 0.875l0 10.203125q-3.671875 -1.78125 -5.1875 -1.78125q-5.4375 0 -5.4375 5.25q0 4.984375 12.515625 11.609375zm-6.703125 5.125l0 0zm85.328125 -6.5l0 10.0625l-32.203125 0l-0.828125 13.671875q-0.453125 -0.6875 1.0 -1.671875q1.46875 -0.984375 2.953125 -1.625q1.5 -0.640625 3.046875 -0.921875q1.5625 -0.28125 3.28125 -0.28125q3.34375 0 6.125 1.15625q2.78125 1.140625 4.703125 3.265625q1.9375 2.109375 2.96875 5.03125q1.03125 2.90625 1.03125 6.40625q0 2.375 -0.546875 4.703125q-0.546875 2.328125 -1.5 4.5q-0.9375 2.171875 -2.1875 4.109375q-1.25 1.921875 -3.984375 4.921875l-6.71875 -8.3125q1.71875 -1.8125 2.40625 -2.9375q0.703125 -1.125 1.265625 -2.375q0.5625 -1.265625 0.90625 -2.515625q0.34375 -1.265625 0.34375 -2.21875q0 -1.671875 -0.5625 -2.78125q-0.546875 -1.109375 -1.375 -1.78125q-0.828125 -0.6875 -1.734375 -0.96875q-0.90625 -0.296875 -1.59375 -0.296875q-1.375 0 -2.5 0.390625q-1.109375 0.375 -2.203125 1.125q-1.09375 0.734375 -2.265625 1.84375q-1.15625 1.09375 -2.03125 1.96875l0 23.171875l-10.71875 0l1.125 -17.984375q0.609375 0.96875 -0.859375 1.859375q-1.46875 0.890625 -3.203125 1.65625q-1.734375 0.75 -3.71875 1.28125q-1.96875 0.515625 -4.015625 0.515625q-4.390625 0 -7.46875 -1.390625q-3.0625 -1.390625 -5.0 -3.59375q-1.9375 -2.203125 -2.765625 -4.84375q-0.828125 -2.65625 -0.828125 -5.125q0 -3.25 1.234375 -5.96875q1.25 -2.734375 3.484375 -4.6875q2.25 -1.96875 5.296875 -3.03125q3.046875 -1.078125 6.625 -1.078125q2.390625 0 4.34375 0.40625q1.96875 0.40625 3.546875 0.9375q1.578125 0.515625 2.734375 1.0625q1.171875 0.546875 0.671875 1.640625l-1.203125 -9.234375l-29.234375 0l0 -10.0625l72.15625 0zm-42.625 28.234375q-0.171875 0.234375 -1.203125 -0.375q-1.03125 -0.625 -2.390625 -1.171875q-1.34375 -0.546875 -3.03125 -0.9375q-1.671875 -0.390625 -3.765625 -0.390625q-6.046875 0 -6.046875 4.203125q0 2.65625 1.453125 3.96875q1.453125 1.296875 4.015625 1.296875q1.28125 0 2.859375 -0.578125q1.578125 -0.578125 3.125 -1.453125q1.5625 -0.875 2.984375 -1.875q1.4375 -1.0 1.703125 -1.203125l0.296875 -1.484375z" fill-rule="nonzero"/><path fill="#ffffff" d="m599.09424 153.25177l0 0zm39.078125 10.1875l-5.265625 6.953125q-14.90625 -11.84375 -21.59375 -15.515625q-11.984375 -6.515625 -23.71875 -6.515625q-6.125 0 -10.34375 1.96875q-5.046875 2.359375 -5.046875 7.15625q0 2.0 1.546875 2.71875l17.6875 0l0 10.0625l-12.4375 0l0 47.578125l-10.71875 0l0 -47.578125l-9.546875 0l0 -10.0625l3.453125 0.1875q-0.34375 -0.28125 -0.34375 -3.640625q0 -9.78125 8.609375 -14.859375q6.78125 -3.953125 16.640625 -3.953125q23.828125 0 51.078125 25.5zm-39.078125 50.875l0 0zm49.265625 -44.046875l-12.5 0l0 47.578125l-10.71875 0l0 -26.203125l-16.078125 -1.03125q0.921875 -0.5 1.796875 1.296875q0.875 1.796875 0.875 4.421875q0 14.34375 -12.375 14.34375q-2.90625 0 -5.359375 -1.09375q-2.453125 -1.09375 -4.1875 -3.015625q-1.734375 -1.9375 -2.671875 -4.515625q-0.921875 -2.578125 -0.921875 -5.5625q0 -14.90625 16.21875 -14.90625l22.703125 0l0 -11.3125l-40.078125 0l0 -10.0625l63.296875 0l0 10.0625zm-52.0 26.515625q0 3.9375 3.0 3.9375q2.5625 0 2.5625 -4.390625q0 -0.8125 -0.21875 -1.484375q-0.203125 -0.6875 -0.59375 -1.28125q-0.375 -0.609375 -0.84375 -1.09375q-0.46875 -0.5 -0.34375 -0.40625q-1.859375 0.328125 -2.71875 1.390625q-0.84375 1.0625 -0.84375 3.328125zm85.91406 -43.53125l0 0zm44.171875 10.015625l-4.5625 7.09375q-17.1875 -11.75 -25.21875 -15.421875q-13.890625 -6.578125 -25.890625 -6.578125q-6.125 0 -10.34375 1.96875q-5.046875 2.359375 -5.046875 7.15625q0 2.0 1.546875 2.71875l17.6875 0l0 10.0625l-12.4375 0l0 47.578125l-10.71875 0l0 -47.578125l-9.546875 0l0 -10.0625l3.453125 0.1875q-0.34375 -0.28125 -0.34375 -3.640625q0 -9.78125 8.609375 -14.859375q6.78125 -3.953125 16.640625 -3.953125q25.078125 0 56.171875 25.328125zm-44.171875 51.046875l0 0zm53.703125 -44.046875l-12.515625 0l0 47.578125l-10.71875 0l0 -22.5625l-17.046875 0l0 0.015625q0 3.796875 -0.875 6.671875q-0.875 2.859375 -2.625 4.84375q-1.734375 1.984375 -4.203125 2.921875q-2.453125 0.9375 -5.453125 0.9375q-2.734375 0 -4.921875 -1.078125q-2.1875 -1.078125 -3.65625 -2.890625q-1.46875 -1.8125 -2.25 -4.140625q-0.765625 -2.34375 -0.765625 -4.96875q0 -2.15625 0.8125 -4.359375q0.828125 -2.21875 2.546875 -4.0q1.734375 -1.796875 4.328125 -2.90625q2.609375 -1.109375 6.125 -1.109375l0.21875 0l0 -14.953125l-16.734375 0l0 -10.0625l67.734375 0l0 10.0625zm-23.234375 14.953125l0 -14.953125l-17.046875 0l0 14.953125l17.046875 0zm-27.765625 10.0625q-1.875 0 -2.921875 0.671875q-1.046875 0.671875 -1.046875 1.6875q0 1.625 0.453125 2.421875q0.453125 0.78125 1.375 0.78125q0.625 0 0.984375 -0.28125q0.375 -0.28125 0.640625 -0.890625q0.28125 -0.625 0.390625 -1.609375q0.125 -0.984375 0.125 -2.03125l0 -0.75zm38.078125 -33.703125l-4.15625 9.125q-8.15625 -3.984375 -12.5 -8.46875q-5.796875 -5.984375 -5.796875 -12.5q0 -6.515625 4.171875 -10.40625q4.15625 -3.90625 10.90625 -3.90625q2.390625 0 5.484375 0.875l0 10.203125q-3.671875 -1.78125 -5.1875 -1.78125q-5.4375 0 -5.4375 5.25q0 4.984375 12.515625 11.609375zm-6.703125 5.125l0 0zm75.484375 3.5625l-11.6875 0l0 47.578125l-10.71875 0l0 -26.375l-18.921875 0q-3.171875 0 -5.0 1.796875q-1.828125 1.78125 -1.828125 4.828125q0 4.59375 3.8125 9.0q0.921875 1.09375 9.5625 8.828125l-8.34375 7.171875q-15.75 -14.21875 -15.75 -24.515625q0 -7.734375 4.328125 -12.453125q4.328125 -4.71875 12.109375 -4.71875l20.03125 0l0 -11.140625l-39.90625 0l0 -10.0625l62.3125 0l0 10.0625zm-33.484375 50.203125l0 0zm0 -53.765625l0 0zm14.6875 0l0 0zm0 47.609375l0 0z" fill-rule="nonzero"/></g></svg>